<?xml version="1.0" encoding="utf-8"?>
<!-- Generator: Adobe Illustrator 22.1.0, SVG Export Plug-In . SVG Version: 6.00 Build 0)  -->
<svg version="1.1" id="Layer_1" xmlns="http://www.w3.org/2000/svg" xmlns:xlink="http://www.w3.org/1999/xlink" x="0px" y="0px"
	 width="800px" height="800px" viewBox="0 0 800 800" style="enable-background:new 0 0 800 800;" xml:space="preserve">
<style type="text/css">
	.st0{fill:#085394;}
</style>
<path class="st0" d="M542.506,406.956c0.072-0.703,0.296-0.463,0.408-0.341c-0.176-2.446-0.958-0.255-1.113-4.066
	c-0.548-0.527-0.04-2.456,0.31-4.874c0.292-2.411,0.66-5.329-0.13-7.648c0.191-1.178,0.644,0.525,0.997,0.149
	c-0.648-3.223-0.901-4.591-1.176-5.816c-0.289-1.22-0.677-2.289-1.539-4.844c0.029-1.519,0.061-3.045-0.021-4.561
	c-0.146,3.385-1.756-0.664-3.102-4.117c-0.02,0.164-0.038,0.314-0.057,0.471c-0.075-0.381-0.142-0.764-0.22-1.144
	c0.094,0.222,0.192,0.44,0.277,0.674c0.027-0.224,0.055-0.458,0.082-0.691c-0.181-0.253-0.355-0.498-0.523-0.732
	c-0.201-0.954-0.407-1.907-0.627-2.854c0.293-0.001,0.767,0.627,1.269,1.402c-0.029,0.739-0.07,1.473-0.12,2.184
	c0.839,1.301,1.73,2.525,2.243,2.122c-0.179-0.359-0.405-1.07-0.602-1.861c0.226,0.344,0.412,0.558,0.477,0.364
	c0.055-0.216-0.229-0.792-0.708-1.68l0.768-1.547l-0.499-0.226c-0.353-2.578-0.696-5.171-1.237-7.726
	c-0.65-1.27-1.307-2.482-1.993-3.705c-0.74-1.207-1.492-2.429-2.254-3.745c-0.747-1.317-1.541-2.719-2.42-4.27
	c-0.887-1.542-1.688-3.297-2.696-5.224c1.628,1.649,1.4-0.091,2.322-0.364c0.034,1.294,0.715,2.846,1.645,4.605
	c0.451,0.884,0.986,1.812,1.434,2.815c0.436,1.007,0.849,2.067,1.168,3.167c-0.665-2.296-0.07-1.952,0.276-1.424
	c-1.109-2.512-2.481-4.909-3.74-7.328c0.796-0.129-0.081-1.844-0.7-3.912c-0.372,1.047-1.234-0.238-2.223-2.126
	c-0.242-0.475-0.5-0.984-0.765-1.504c-0.283-0.51-0.572-1.03-0.853-1.538c-0.566-1.013-1.117-1.965-1.598-2.645
	c0.363-0.425,1.195,0.038,2.933,3.709c-1.04-4.512-4.153-4.346-5.502-8.565c0.502,0.848,0.697,1.346,1.121,1.556
	c-0.775-0.887-1.781-2.589-2.466-3.96c-0.695-1.364-1.142-2.357-0.581-1.924l0.541,0.825c-0.846-1.405-1.944-3.161-3.139-5.005
	c-1.229-1.82-2.651-3.663-3.958-5.366c-1.333-1.684-2.708-3.113-3.77-4.175c-1.072-1.054-1.903-1.684-2.325-1.648
	c0.088-0.161,1.775-0.362,2.217-0.205c-2.5-1.412-4.978-2.767-7.484-4.027c-0.833-0.911-1.68-1.809-2.537-2.697
	c0.538-1.171,1.061-2.653,3.965-0.239c-0.482-0.622-1.026-1.318-1.77-2.123c-0.748-0.801-1.669-1.741-3.024-2.721
	c0.675,0.85,0.761,2.994-0.346,2.056c-2.022-3.62-1.481-2.419-4.413-6.522c1.048,1.227-1.475,1.37-3.319-0.301
	c0.468,0.057,0.974-1.457,1.794-0.989l-2.937-1.399c-0.976-0.46-1.998-0.854-2.988-1.279c1.418,0.718,1.137-0.97,0.324-2.231
	c0.153,0.336-0.914-0.513-2.199-1.559c-1.308-1.015-2.885-2.163-3.615-2.587l1.943,1.874c-2.833-2.15-4.572-2.73-6.4-3.105
	c-0.903-0.206-1.803-0.402-2.838-0.786c-1.04-0.374-2.184-0.984-3.69-1.842c0.903,0.107,2.952-0.838-0.05-2.816
	c-0.947-0.004-3.011-0.057-5.591-0.21c-0.163-0.008-0.338-0.031-0.504-0.042c-2.274-1.201-4.584-2.344-6.93-3.422
	c0.426,0.039,0.857,0.081,1.296,0.124c1.589,0.13,3.163,0.444,4.672,0.709c1.5,0.283,2.913,0.561,4.051,0.865
	c-2.171-1.59-0.376-0.871-3.959-2.661c-1.051-1.071,2.275,0.355,3.344,0.873c-2.733-1.516-5.454-3.072-8.293-4.4
	c-0.024,0.557-1.762,0.055-3.487-0.462c-1.753-0.454-3.505-0.9-3.496-0.438c3.283,0.832,6.458,1.986,9.703,3.038
	c-0.037,0.549-1.69,0.606-4.038,0.183c-1.181-0.196-2.509-0.579-3.958-0.965c-1.448-0.39-2.967-0.898-4.461-1.536
	c-1.4-0.994,1.805-1.266,1.811-1.634c-0.47,0.028-1.96-0.448-3.445-0.833c-1.479-0.402-2.901-0.864-3.148-1.081l2.826,0.373
	c-1.677-0.773-3.21-0.93-4.793-1.182c-1.591-0.238-3.261-0.466-5.242-1.555c-1.422-0.523-4.076-2.432-4.483-1.888
	c1.294,1.023,1.632,2.729,1.322,4.046c-1.634-0.417-3.283-0.798-4.939-1.158l0.281-0.332l-0.958-0.209l-0.046,0.383
	c-1.692-0.358-3.395-0.685-5.109-0.981c-0.234-0.926,4.265-1.189,2.603-2.185c-0.144,0.261-1.56,0.362-2.141,0.372
	c-1.521-0.516,0.798-0.747-2.63-1.228c-0.727,0.95-6.949-0.977-1.747,0.664c-1.689-0.064-2.566-0.23-3.516-0.437
	c-0.95-0.201-1.967-0.489-3.944-0.589c0.598,0.385-0.343,0.891-1.83,1.309c-0.456,0.134-0.968,0.245-1.499,0.347
	c-1.465-0.097-2.936-0.171-4.413-0.223c-0.056-0.028-0.109-0.053-0.155-0.075c-1.703-0.067-3.208-0.152-4.61-0.246
	c-1.403-0.037-2.701-0.071-3.984-0.104c-1.284-0.025-2.558-0.084-3.906-0.058c-1.347,0.055-2.771,0.132-4.362,0.25
	c-0.606-0.221-3.716-0.259-2.451-0.828c-0.9,0.292-1.7,0.758-3.655,1.03c-3.918-0.416,4.363-0.697,1.335-1.409
	c-0.178,0.665-5.005,1.396-7.692,2.357c0.511,0.409,2.098,0.099,3.929-0.249c1.83-0.354,3.888-0.903,5.268-1.269
	c0.051,0.436-0.465,0.949-1.398,1.492c-6.95,0.821-13.744,2.149-20.346,3.946c-0.599,0.122-1.281,0.278-2.059,0.472
	c-0.882,0.223-1.869,0.474-2.918,0.771c-1.036,0.341-2.14,0.705-3.281,1.081c-1.138,0.386-2.324,0.753-3.494,1.174
	c-1.164,0.44-2.332,0.881-3.471,1.311c-2.304,0.803-4.439,1.693-6.258,2.333c-0.795,0.573-2.021,1.346-2.28,1.702
	c-3.464,1.662-6.845,3.468-10.144,5.398c-0.969,0.488-1.963,0.937-2.898,1.487l0.965-0.42l1.65-0.9
	c-4.101,2.413-8.069,5.027-11.89,7.83c-0.007-0.121-0.064-0.214-0.217-0.255c-0.802,0.677-1.553,1.417-2.307,2.151
	c-0.157,0.121-0.315,0.24-0.471,0.361c0.058-0.263,0.639-1.009-0.163-0.554c0.056,0.203-0.19,0.631-0.613,1.15
	c-1.537,1.209-3.044,2.454-4.529,3.725c-0.03,0.018-0.059,0.039-0.09,0.056c-0.018,0.021-0.029,0.038-0.046,0.059
	c-1.204,1.033-2.391,2.087-3.56,3.16c-0.122,0.088-0.271,0.203-0.458,0.357c-0.116,0.165-0.267,0.31-0.416,0.456
	c-27.493,25.674-44.688,62.237-44.688,102.821c0,2.708,0.084,5.396,0.235,8.067c-0.504,1.479-1.031,3.065-1.706,2.89
	c0.399,0.947,0.527,2.064,0.531,3.314c0.038,1.246,0.007,2.619-0.022,4.079c-0.11,2.92,0.153,6.163,1.639,9.139
	c-0.045,1.451-0.678-1.098-0.88-0.289c0.865,1.497,1.478,3.358,2.012,6.972l-0.244-0.364c0.561,2.498,1.26,4.581,1.741,6.555
	c0.477,1.977,1.024,3.763,1.55,5.602c0.518,1.841,1.023,3.733,1.758,5.805c0.702,2.084,1.448,4.419,2.592,7.077l0.313-1.075
	c0.93,2.293,0.938,2.865,1.252,4.002c2.168,2.114-2.81-6.365-0.632-4.503c-0.003,0.892,0.444,2.335,1.107,4.037
	c0.669,1.7,1.692,3.591,2.626,5.487c0.909,1.912,2.009,3.68,2.722,5.223c0.738,1.529,1.186,2.781,1.149,3.46
	c2.056,3.226,0.113-1.386,2.161,1.828l0.163,1.098l1.011,0.489c1.249,2.161,1.595,3.46,1.309,3.777
	c-0.315-0.523-1.093-1.351-1.499-1.866c0.722,1.48,2.096,3.334,3.348,4.936c1.065,1.356,2.118,2.464,2.575,3.08
	c-0.62-0.929-1.25-1.847-1.849-2.786c1.692,1.994,3.391,4.162,5.214,6.311c1.877,2.103,3.691,4.353,5.727,6.386
	c1,1.032,1.997,2.062,2.987,3.084c1.048,0.96,2.087,1.912,3.11,2.85c2.024,1.896,4.197,3.492,6.232,4.972l-0.353-0.761
	c0.766,0.575,1.417,1.063,1.982,1.487c0.576,0.41,1.056,0.77,1.474,1.099c0.835,0.658,1.418,1.19,2.015,1.746
	c0.604,0.546,1.19,1.157,2.108,1.865c0.918,0.707,2.121,1.573,3.875,2.729l-0.296-0.109c1.543,0.73,3.544,1.76,5.449,3.035
	c-2.006-0.807,2.951,2.82,0.368,1.694c3.729,1.9,4.729,2.213,5.404,2.394c0.699,0.129,1.08,0.127,3.804,0.81l0.855,1.078
	c0.948,0.196,1.484,0.249,2.257,0.475c0.776,0.218,1.762,0.658,3.7,1.422c-3.327-0.967,2.067,1.888-1.714,0.888
	c1.875,1.191,3.603,2.056,5.171,2.731c1.585,0.638,3.037,1.028,4.323,1.414c2.567,0.798,4.586,1.269,6.218,2.782
	c2.171-0.099,0.427-0.92-1.56-1.66c-2.005-0.697-4.189-1.548-3.087-1.271c-0.788-0.588,0.093-0.557,1.472-0.24
	c1.398,0.27,3.315,0.772,4.584,1.289c1.311,0.467,2.274,1.338,3.799,2.26c0.758,0.474,1.65,0.983,2.781,1.493
	c0.566,0.255,1.191,0.511,1.889,0.762c0.706,0.22,1.487,0.426,2.353,0.623c-0.687-0.166-0.762-0.061-1.448-0.227
	c1.248,0.495,2.552,0.656,3.917,0.863c0.683,0.104,1.381,0.219,2.099,0.394c0.725,0.144,1.471,0.339,2.244,0.644
	c1.968-0.617,4.163,0.799,4.869-0.312l-6.426-0.861c1.841,0.168,3.67,0.052,5.751,0.109c2.085,0.047,4.444,0.095,7.384,0.837
	c-0.489,0.185-2.305,0.28-3.555,0.303c1.714,0.556,3.396,0.245,5.185,0.736c-0.319,0.617-2.291,0.459-4.68,0.171
	c-1.195-0.139-2.496-0.291-3.75-0.401c-1.247-0.161-2.45-0.259-3.467-0.205c0.9,0.408,2.781,0.566,4.172,0.626
	c1.392,0.057,2.286,0.151,1.207,0.678c1.539-0.649,3.258-0.378,5.228-0.025c1.974,0.268,4.209,0.581,6.641,0.125l-0.358,0.704
	c0.768-0.029,2.361-0.339,3.759-0.288l-2.581,0.88c3.932-0.717,7.538,0.968,11.314,0.355c-3.941,0.12-4.382-0.112-4.255-0.407
	c0.128-0.286,0.814-0.628-0.835-0.935c9.349-1.123,5.793,1.834,15.671,0.859c-1.74,0.099-4.439-0.157-2.501-0.585
	c1.037,0.011,2.241,0.023,3.347,0.035c1.106-0.002,2.119,0.036,2.775,0.146c7.137-1.061-1.196-0.604,1.785-1.435
	c2.556,0.607,3.431-0.898,6.452-1.707l0.158,0.726c1.016-0.121,1.808-0.242,2.429-0.362c0.616-0.145,1.06-0.29,1.39-0.423
	c0.659-0.268,0.856-0.509,1.029-0.741c0.347-0.464,0.588-0.89,4.214-1.433l-2.775,1.697c1.223-0.387,2.457-0.72,3.664-1.149
	c-0.183,0.34-0.363,0.697-0.553,1.023c1.942-0.855,3.222-1.354,4.529-1.729c1.307-0.374,2.636-0.635,4.606-1.207
	c-1.062-0.193,0.09-1.451,3.48-2.624c2.457-0.427-1.035,1.185,3.692-0.777c-0.912,0.826-1.869,1.936-4.229,1.975
	c-0.135,0.301-0.929,0.806-1.077,1.108c2.726-0.308,6.339-2.233,8.073-2.91c-0.68,0.238-1.494,0.517-1.942,0.58
	c1.093-0.621,2.191-1.219,3.268-1.856l3.178-2c1.18-0.228,0.431,0.356-0.32,0.936c1.334-0.716,2.172-1.388,4.113-2.45
	c-0.25,0.795,0.174,1.339-2.596,2.888c2.1-1.141,4.098-2.469,6.109-3.743c0.549,0.032,3.587-1.056,2.873-0.432
	c1.805-0.84,3.79-2.293,5.872-3.848c2.023-1.657,4.23-3.283,6.498-4.606c0.156-0.254,0.537-0.662,1.393-1.377
	c1.021-0.684,2.036-1.318,3.052-1.949c0.99-0.666,1.968-1.344,2.959-2.056c0.985-0.719,1.99-1.461,2.972-2.324
	c0.96-0.89,1.925-1.869,2.889-2.978c1.06-0.463,2.171-0.88,3.205-1.396c3.144-3.335-4.157,2.08,1.052-3.447
	c3.623-3.948,2.103-0.716,3.646-1.844c0.734-1.163,1.7-2.776,2.981-4.462c1.265-1.704,2.738-3.573,4.701-5.144
	c-0.913,1.366-1.874,2.231-2.813,3.438l2.922-2.458c-2.223,4.101-4.707,6.376-1.713,4.252c-0.3-0.451,0.143-1.381,0.956-2.549
	c0.806-1.173,2.023-2.552,3.111-4.039c1.116-1.462,2.231-2.925,2.982-4.125c0.701-1.237,1.046-2.199,0.699-2.61l1.796-1.768
	c-0.429,0.569-0.394,0.732-0.819,1.294c3.643-3.37,0.815-3.793,4.407-8.807c1.265-1.747,2.24-2.927,1.73-1.516l1.95-4.428
	c0.515-0.863,0.737-0.851,0.554-0.338c0.982-1.911,1.887-3.86,2.837-5.783l0.031,0.076c0.196-1.072,0.67-3.46,0.959-4.588
	c1.037-1.566-0.181,0.938,0.252,0.613c0.392-1.303,0.825-2.585,1.177-3.894c0.55-0.661,0.646-0.163,0.452,0.823
	c-0.23,0.97-0.764,2.423-1.377,3.685c1.729-1.3,1.972-2.136,2.314-3.506c0.284-1.402,0.704-3.313,2.733-6.943
	c-0.34,1.243-0.763,2.458-1.142,3.691c0.99-0.948,1.733-2.15,2.37-3.642c0.646-1.491,1.314-3.223,2.371-5.2
	c-0.711,0.905-4.573,7.706-3.641,3.333c0.538-1.126,1.165-2.656,1.487-5.045c0.715,0.198,1.18-2.099,1.934-4.912l0.895,0.447
	c0.312-1.559,0.277-2.319,0.19-2.923c-0.082-0.602-0.221-1.05-0.229-2.002c0.883-3.39,1.801-3.947,2.56-4.647
	c1.15-5.538-1.884,3.598-0.893-2.999c0.298-1.133,0.533-2.192,0.723-3.227c0.153-1.041,0.24-2.063,0.312-3.114
	c0.132-2.104,0.22-4.325,0.088-7.127c0.585-3.223,0.556,0.616,0.926-0.528L542.506,406.956z M537.357,365.983
	c-0.295-0.967-0.497-2.092-0.636-3.366C537.175,363.323,537.309,364.566,537.357,365.983z M534.645,448.199
	c-0.205,0.753-0.468,1.449-0.818,1.74c-0.331-1.45,0.395-2.188,1.201-3.87C534.927,446.609,534.817,447.433,534.645,448.199z"/>
</svg>
