<?xml version="1.0" encoding="utf-8"?>
<!-- Generator: Adobe Illustrator 22.1.0, SVG Export Plug-In . SVG Version: 6.00 Build 0)  -->
<svg version="1.1" id="Layer_1" xmlns="http://www.w3.org/2000/svg" xmlns:xlink="http://www.w3.org/1999/xlink" x="0px" y="0px"
	 width="800px" height="800px" viewBox="0 0 800 800" style="enable-background:new 0 0 800 800;" xml:space="preserve">
<style type="text/css">
	.st0{fill:#39BCDD;}
</style>
<path class="st0" d="M103.723,191.187c0.022-0.077,0.042-0.155,0.06-0.233c0.431-0.308,0.838-0.623,1.189-0.923
	c1.675-1.4,2.211-3.722,1.322-5.695c-0.207-0.431-0.57-0.72-0.868-1.072l1.322-0.783l-1.931-0.25
	c0.387-0.696,0.565-1.441,0.85-2.163c0.101-0.085,0.189-0.169,0.291-0.262c0.803-0.699,1.462-1.293,2.189-1.944
	c0.971,0.606,2.118,1.088,3.052,1.099c3.104,0.047,5.126-2.276,6.742-4.131c0.34-0.384,0.7-0.781,1.053-1.146
	c1.708-1.196,3.098-2.402,3.438-4.247c2.719-2.561,5.408-5.168,7.99-7.754c5.667-5.711,11.514-11.593,18.405-16.648
	c1.652-1.217,2.338-3.317,1.787-5.237c2.863-2.393,5.937-4.534,9.347-6.55c2.273-1.428,4.575-2.735,6.988-4.111
	c3.471-1.978,7.196-4.173,11.236-6.708c1.897-1.232,2.667-3.554,1.973-5.608c8.414-5.459,16.716-10.369,25.462-15.005
	c1.275-0.823,2.243-1.958,2.508-3.426c0.362-2.021,2.56-3.191,7.507-5.417c3.985-1.784,8.761-3.922,12.628-7.845
	c2.725-0.036,6.311-1.482,11.823-4.566c0.107-0.054,0.232-0.069,0.337-0.136l0.05-0.032l0.778-0.508l0.012-0.015
	c1.675-0.95,3.349-1.935,4.852-2.889c0.91-0.577,1.756-1.143,2.496-1.675c0.774-0.547,1.258-1.312,1.595-2.129
	c3.725-1.759,7.391-3.96,9.384-6.538c2.105-0.436,4.107-1.496,5.804-2.433c1.634,1.261,3.844,1.503,5.593,0.393
	c0.065-0.041,0.136-0.086,0.19-0.134l4.766-3.362c0.622-0.43,1.079-1.029,1.432-1.668c1.84-0.914,3.841-1.699,6.038-2.433
	c2.949-0.93,6.043-1.952,8.888-3.132c2.302,0.584,5.172-0.26,8.519-1.253c1.092-0.328,2.775-0.826,3.762-1.031
	c0.436-0.038,0.849-0.089,1.224-0.123c1.48-0.166,2.73-0.994,3.509-2.17c0.04-0.004,0.07-0.002,0.115-0.009
	c3.388-0.105,6.969-0.22,10.037-1.963c0.665-0.485,1.348-1.073,1.913-1.811c1.861,0.14,3.921,0.006,5.941-0.221
	c3.003-0.142,8.988-0.679,12.681-3.444c0.245-0.169,0.472-0.356,0.668-0.579c1.01-0.093,2.009-0.179,3.009-0.265
	c2.427-0.234,4.842-0.466,7.289-0.634l5.695-0.592c3.896-0.427,7.804-0.869,11.764-1.021c6.166-0.421,11.844-0.819,17.283-0.469
	c5.503,0.176,11.223,0.524,16.708,1.87c2.212,0.542,4.495-0.498,5.531-2.505c0.021-0.077,0.073-0.151,0.089-0.225
	c2.478,2.482,5.299,5.168,11.915,5.685l23.82,1.63c3.993,0.263,7.873,0.71,11.756,1.253l3.663,0.486
	c2.785,0.355,5.559,0.702,8.326,1.118l5.029,0.968c6.267,1.174,12.187,2.273,17.965,3.974c3.872,1.063,7.659,2.125,11.356,3.334
	c1.751,0.618,3.516,1.268,5.29,1.934c0.052,0.41,0.163,0.824,0.326,1.22c0.628,1.534,2,2.652,3.638,2.941
	c0.978,0.187,1.858,0.191,2.627,0.132c0.864,1.363,2.355,2.237,4.029,2.285c3.302,0.069,7.317,1.386,10.805,2.644
	c4.329,1.518,8.695,3.59,12.916,5.612l1.5,0.678c8.266,3.77,16.128,7.354,23.141,7.092c4.382,3.052,8.691,4.99,12.874,6.875
	c6.302,2.845,12.249,5.522,18.562,11.943c0.617,0.628,1.395,1.076,2.246,1.309c1.835,0.473,3.256,0.393,4.355,0.033l7.101,6.919
	c5.536,6.479,14.186,11.537,22.609,16.178c4.323,2.751,8.506,5.396,12.391,8.257c3.381,2.422,6.45,5.59,9.218,9.455
	c0.522,0.744,1.227,1.288,1.999,1.64c0.106,0.165,0.229,0.333,0.363,0.487c2.562,3.096,4.465,5.697,6.117,7.951
	c1.775,2.402,3.268,4.335,4.728,6.17l9.435,11.868c1.129,1.455,2.952,2.118,4.685,1.819c0.01,0.015,0.015,0.012,0.021,0.022
	c0.036,2.374,1.376,4.783,2.192,6.268c3.823,5.381,7.62,9.514,10.87,12.918c3.082,3.167,5.85,6.35,8.464,9.406
	c0.308,1.688,0.838,3.157,1.306,4.399c0.105,0.306,0.232,0.59,0.323,0.863c-0.744,1.449-0.729,3.231,0.145,4.708
	c2.656,4.407,4.657,8.07,6.684,11.808l1.039,1.92c0.876,1.601,1.729,3.287,2.658,5.08c1.637,3.199,3.464,6.747,5.843,10.922
	c0.181,0.314,0.389,0.603,0.64,0.873c0.821,3.119,2.963,5.849,4.812,8.168c0.758,0.967,1.895,2.423,2.117,2.978
	c-0.246,2.068,0.86,3.586,2.755,4.471c0.336,0.159,0.67,0.249,1.022,0.3l0.092,0.286c0.197,0.634,0.525,1.199,0.94,1.666
	c-0.164,0.821-0.09,1.695,0.295,2.546c3.011,6.648,6.115,13.518,8.397,20.081c2.539,6.884,5.076,13.292,7.712,19.82
	c0.511,1.264,1.544,2.253,2.8,2.728c0.791,2.414,1.664,4.79,2.568,6.95c0.405,1.078,1.291,3.278,2.437,5.495
	c-0.341,0.624-0.56,1.339-0.593,2.091c-0.11,1.939-0.36,6.496,2.861,8.57l-0.054,0.927c0.006,0.01-0.009,0.019-0.009,0.019
	c-0.128,1.648,0.57,3.159,1.757,4.155l0.247,7.854c-0.001,1.35,0.582,2.638,1.595,3.562c0.233,0.196,0.479,0.392,0.754,0.555
	c0.595,0.923,1.461,2.98,2.169,5.299c-0.252,0.301-0.644,0.43-0.818,0.807c-0.374,0.793-0.261,1.782-0.333,2.692
	c-0.092,0.297-0.257,0.557-0.287,0.885l-0.394,4.817c-0.124,1.477,0.439,2.912,1.518,3.927l1.311,1.22l-0.224,0.564
	c-0.265,0.709-0.544,1.364-0.789,1.941l-0.015,0.01c-0.916,0.975-1.726,2.311-1.629,3.648l0.096,1.38
	c0.081,1.158,0.582,2.189,1.343,2.985c-1.021,1.822-2.075,3.945-1.958,6.906c0.709,7.659,1.232,11.382,2.005,14.503l0.542,1.961
	c0.364,1.301,0.785,2.734,1.191,4.936c-2.552,3.018-2.872,8.048-3.078,11.453c-0.231,2.894-0.477,6.381-1.001,7.304
	c-1.806,0.9-2.042,2.216-1.797,4.232c1.436,11.358-2.467,26.728-6.217,41.588c-1.065,4.204-2.124,8.396-3.067,12.48
	c-0.222,0.963-0.133,1.925,0.196,2.799c-0.42,0.744-1.056,1.394-1.934,2.316c-2.031,2.09-4.804,4.952-5.897,10.551
	c-0.232,1.244,0.022,2.495,0.659,3.517c-0.956,4.176-2.77,9.15-5.247,14.306c-3.659,7.662-7.781,13.967-10.604,17.916
	c-0.31,0.442-0.536,0.916-0.682,1.403c-1.742,1.352-2.393,3.627-2.819,5.141c-0.167,0.598-0.22,1.208-0.164,1.79l-2.29,1.952
	c-0.703,0.601-1.208,1.378-1.488,2.251c-2.099,6.708-5.096,14.365-9.147,23.386c-1.445,3.405-3.25,6.539-5.019,9.65l-0.937,1.656
	c-2.458,4.075-4.358,7.291-6.639,10.137c-0.432,0.527-0.735,1.134-0.915,1.789c-0.443,1.708-0.445,3.199-0.006,4.452
	c-1.228,1.644-2.462,3.059-3.688,4.617l-0.898-0.625c-0.585,0.73-1.473,2.439-1.832,4.036c-0.761,0.918-1.521,1.97-2.277,2.851
	c-1.411,1.591-2.62,3.131-3.998,4.708c-1.354,0.691-2.611,1.959-4.235,4.978c-1.336,1.607-2.851,3.235-4.089,4.829
	c-0.908,1.152-1.224,2.639-0.922,4.008c-1.466,0.495-2.773,1.324-3.922,2.706l0.03-0.293l-2.663,3.538
	c-1.34,1.778-2.694,3.522-4.646,5.274l-0.547,0.481l0.33,0.381c-0.716,0.735-1.384,1.314-2.178,2.345
	c-0.88,1.128-1.027,2.549-0.74,3.906c-0.286,0.413-0.546,0.824-0.842,1.244c-0.885,0.098-1.76,0.203-2.628,0.438
	c-0.787,0.218-1.481,0.659-2.105,1.041c-5.876,3.729-6.898,7.581-7.47,11.528c-0.333,2.362-0.607,4.397-3.691,7.184
	c-0.074-0.037-0.145-0.027-0.216-0.06l2.324-3.997l-3.308,3.701c-1.414-0.459-2.825-0.505-3.811-0.287
	c-1.041,0.232-1.979,0.764-2.661,1.562c-3.326,3.783-5.611,5.479-8.029,7.266c-3.184,2.203-5.825,4.609-9.927,8.562
	c-0.781,0.755-1.288,1.759-1.433,2.842c-0.077,0.562-0.172,1.36-0.176,2.255c-0.968,0.08-1.924,0.399-2.665,1.052
	c-3.104,2.546-5.312,4.439-5.279,6.884c-2.482,1.434-4.867,2.997-6.931,4.454l-1.431,1.021c-2.853,2.035-5.83,4.184-7.785,4.546
	c-1.779,0.349-3.2,1.616-3.72,3.239c-0.967,0.291-2.05,0.556-3.21,0.821c-2.5,0.603-5.333,1.262-8.25,2.593
	c-1.021,0.416-1.798,1.232-2.309,2.175c-0.387,0.751-0.627,1.466-0.752,2.129c-0.208-0.093-0.432-0.176-0.659-0.242
	c-3.051-0.931-6.122,0.512-8.463,1.878c-2.098,0.678-2.956,3.71-2.095,5.925c-0.156,0.45-0.286,0.94-0.373,1.487
	c-0.013,0.078-0.051,0.229-0.201,0.479c-1.783,0.288-3.209,0.955-4.239,1.488c-1.082-0.712-2.432-0.994-3.72-0.717
	c-1.825,0.421-3.327,1.739-3.777,3.578c-0.176,0.695-0.267,1.09-0.385,1.425c-0.5,0.191-0.962,0.343-1.464,0.542
	c-1.018,0.091-2.043,0.193-3.021,0.378c-0.603,0.108-1.465,0.276-2.142,0.369c-0.925-0.699-2.098-1.079-3.329-1.001
	c-2.301,0.167-4.198,1.926-4.498,4.239c-0.07,0.628-0.054,1.411,0.1,2.199l-0.395,0.222c-0.524-0.012-1.06-0.03-1.31-0.131
	c-0.664-1.195-1.376-1.629-2.724-1.94c-1.361-0.331-2.369,0.379-3.465,1.151c-1.137,0.764-2.011,1.55-2.875,2.352
	c-1.158,1.072-2.03,1.872-4.087,2.692c-0.504,0.13-0.985,0.329-1.475,0.613c-3.173,0.538-6.413,1.4-9.561,2.23l-4.72,1.182
	l-0.15,0.053c-0.408,0.048-0.691,0.136-0.965,0.282l-0.032-0.148c-1.091,0.186-2.131,0.32-3.134,0.379
	c-2.213,0.16-3.234-0.14-3.64-0.318c-1.989-0.91-4.388-0.357-5.768,1.292c-0.542,0.632-0.89,1.366-1.057,2.139
	c-1.292,0.49-3.181,1.021-4.352,1.357c-3.283,0.938-6.465,1.826-7.999,3.874c-1.791-0.065-3.32-0.24-4.244-0.42
	c-1.134-0.693-2.422-1.077-3.777-0.695c-1.73,0.48-3.019,2.029-3.492,3.734c-0.724,0.207-1.554,0.424-2.226,0.59
	c-2.21,0.538-4.616,1.123-6.706,2.176c-2.379-0.416-5.001-0.122-7.566,0.184c-1.657,0.187-3.385,0.385-4.639,0.33
	c-0.347-0.033-0.633-0.048-0.841-0.063c-1.853-0.117-3.484,0.791-4.441,2.207c-0.666-0.561-1.573-1.068-2.755-1.407
	c-0.971-0.298-2.014-0.268-2.965,0.047c-1.014,0.349-3.013,1.027-4.45,2.578l-2.711-0.866c-1.071-0.332-2.237-0.295-3.288,0.119
	c-1.302,0.517-2.342,1.135-3.196,1.81c-2.661-0.645-6.161-1.01-10.175,1.299l-1.343-0.237c-0.864-0.154-1.748-0.064-2.568,0.224
	c-2.048,0.745-4.499,1.92-6.414,3.641c-0.089-0.007-0.168-0.02-0.263-0.023c-1.815-0.014-2.962-0.2-3.465-0.563l-0.4-0.259
	l-0.463,0.062c-2.114,0.28-2.828,0.93-3.336,1.955c-0.016-0.025-0.708,0.231-4.093-0.263c-1.792-0.374-2.104-0.857-2.114-0.872
	l2.439-3.578l-3.933,1.898c-1.499,0.684-6.608,0.736-11.382,0.119l-4.298-0.547c0.043-0.196,0.054-0.4,0.032-0.61l-0.127-0.988
	l-1.003-0.073c-7.283-0.543-13.189-2.53-18.896-4.452c-2.908-0.973-5.682-1.904-8.52-2.604l-2.494-0.617l0.988,2.093
	c-2.235-0.852-3.275-1.52-4.017-2.222L339.221,757l-6.602-1.629l-0.812,2.279c0.683,0.311,1.242,0.596,1.697,0.842
	c-0.367-0.097-0.739-0.213-1.116-0.325c-4.309-1.257-10.828-3.163-11.287-4.952l-0.956,0.241l0.113-0.648l-0.571-0.095
	c-0.889-0.16-1.613-0.283-2.705-0.603l-4.281-1.324c-2.956-0.928-6.078-1.926-8.878-2.82l-0.849-0.262
	c-6.322-2.017-8.454-2.667-9.45-2.597c-2.856-1.42-5.959-2.718-8.955-3.972c-4.06-1.717-9.611-4.055-10.06-5.169l0.304-0.924
	l-0.842-0.295c-2.085-1.213-4.926-1.962-7.686-2.684c-4.115-1.078-8.387-2.19-9.568-4.736l-0.254-0.57l-0.61-0.112
	c-3.03-0.614-4.195-0.816-4.632,0.297c-0.13,0.293-0.148,0.551-0.098,0.793c-0.906-0.549-1.758-1.133-2.566-1.695
	c-2.06-1.426-4.056-2.788-6.017-2.864c0.1-0.394,0.061-0.917-0.316-1.577l-0.7-1.207l-1.107,0.843
	c-0.009,0.019-0.029,0.032-0.039,0.039c-1.216,0.772-5.57-1.567-7.677-2.703c-1.044-0.553-2.093-1.159-3.179-1.777
	c-2.569-1.469-5.209-2.984-7.752-3.885l0.004-0.016c0.516-1.023-0.339-1.942-1.876-3.482l-2.115-2.094l0.018,1.907
	c-0.429-0.171-1.013-0.44-1.705-0.822l-0.062-3.327l-10.349,0.679c-2.226-2.431-2.318-3.146-2.318-3.223
	c0.295-0.201,0.781-0.7,0.726-1.522c-0.07-1.108-0.988-2.346-6.095-6.391l-0.336,0.368c-1.894-0.323-3.595-2.061-5.913-4.406
	c-2.568-2.6-5.759-5.846-10.685-8.622l-0.7,1.112l-2.09-2.419l-1.142,0.887l-0.525-0.243c0.288-0.443,0.749-0.475,0.95-0.448
	c-2.29-0.993-2.902-1.756-3.681-2.723c-0.818-1.027-1.827-2.319-4.813-3.973l-4.204-2.336l-4.235-7.185l0.719,6.894
	c-0.711-0.806-1.489-1.739-2.347-2.839c-0.847-1.128-1.683-2.347-2.504-3.555c-0.636-0.932-1.267-1.866-1.895-2.754
	c-3.359-4.628-6.295-7.81-9.678-8.257l-2.646-0.338c-0.273-0.445-0.545-0.659-0.811-1.214c-0.14-0.262-0.227-0.495-0.278-0.695
	l1.406-1.314c-0.416-0.523-0.826-0.853-1.192-1.036l-4.314-3.727l-0.12,2.494c-0.203,3.86,8.293,14.722,11.295,18.227l4.989,5.85
	l-1.996-4.833c1.042,1.573,2.258,3.086,3.405,4.634c-0.224,0.037-0.448-0.145-0.647-0.025c-0.643,0.31-0.987,1.062-0.894,1.776
	c0.004,0.04,0.013,0.097,0.031,0.135c-0.185-0.22-0.316-0.348-0.497-0.584l-1.48-1.879l-0.049,1.408
	c-0.129-0.101-0.258-0.18-0.382-0.285l-1.604-1.125l0.218,1.92c0.181,1.544,0.419,3.55,1.691,5.975l1.539,2.937l0.163-5.549
	c0.38,0.546,0.536,1.03,0.714,1.515c0.335,1.003,0.732,2.135,2.382,3.85l0.32,0.211c1.592,0.592,2.644,0.992,3.361,0.72
	c3.585,4.309,7.382,7.486,13.139,11.078l4.236,2.638l-2.781-3.512c0.784,0.536,1.396,1.068,2.264,1.613
	c1.662,1.854,3.053,3.495,4.378,5.232c2.393,3.141,5.082,6.149,10.427,10.76c6.59,6.928,14.839,10.737,22.123,14.104
	c3.926,1.816,7.68,3.565,10.748,5.61c-1.088-0.216-1.74-0.294-2.114,0.456c-0.361,0.868,0.463,1.498,2.559,2.817l1.496,0.948
	l-0.152-1.576c0.208,0.037,0.498,0.169,0.777,0.272c0.485,0.367,1.022,0.729,1.612,1.106c0.466,0.295,1.015,0.157,1.526-0.006
	c3.024,3.12,5.892,4.174,8.426,5.074c2.081,0.746,3.906,1.379,5.558,3.064l1.189-1.001c0.03,0.002,0.088,0.015,0.131,0.016
	c0.028,0.109,0.08,0.244-0.013,0.43c-0.097,0.245-0.345,0.366-0.419,0.371c0.269-0.044,1.123,0.138,2.03,0.349
	c0.174,0.149,0.368,0.209,0.54,0.388c0.591,0.609,1.432,0.728,2.216,0.252c0.391,0.089,0.799,0.196,1.166,0.272l0.958,0.179
	l0.004-0.059c0.11,0.028,0.242,0.057,0.349,0.081c0.871,0.22,1.794,0.443,2.6,0.606c0.506,0.093,1.038-0.104,1.46-0.329
	c0.134-0.099,0.258-0.227,0.354-0.351c0.188,0.028,0.393,0.06,0.526,0.08c0.319,0.044,0.73,0.099,1.157,0.081
	c1.274,0.625,2.589,1.336,3.774,1.878l1.361,0.605c3.529,1.541,6.689,3.07,9.205,5.767l-0.621-0.119l-0.426,1.669l5.495,1.769
	c2.084,0.617,4.135,1.241,5.054,1.522c1.081,0.347,1.937,0.654,2.691,0.934c1.942,0.693,3.355,1.194,6.095,1.501
	c1.488,0.44,3.334,0.744,6.247,0.913c1.379,0.931,2.841,1.76,4.339,2.524c1.98,1.336,4.014,2.667,6.306,3.608l2.073,0.842l0.42-2.15
	c0.298,0.176,0.589,0.343,0.879,0.517c1.538,0.914,3.098,1.829,4.83,2.627l3.716,1.732l-0.254-0.844
	c0.581,0.264,1.491,0.368,2.643,0.375c0.016,0.025,0.039,0.06,0.045,0.091c0.077,0.197,0.221,0.288,0.31,0.471l-2.182,1.23
	l2.897-0.131c0.432,0.429,1.002,0.72,1.709,0.904l-0.271,0.151l0.422-0.015l-3.609,2.037l8.855-0.349
	c0.803-0.018,1.502-0.054,2.201-0.09l2.016,0.59l-1.268,1.022l2.357,0.69l-0.97,0.011l4.512,1.023l13.508,3.971
	c2.299,0.523,2.839-1,2.882-1.33c0.02-0.09,0.04-0.18,0.045-0.26c3.947,0.102,7.855,0.419,11.638,0.85
	c1.161,0.317,2.293,0.59,3.468,0.919l3.473,0.972c3.459,0.939,6.928,1.738,10.457,2.401c0.11,0.028,0.216,0.06,0.323,0.083
	l-0.072,0.13l0.225-0.101c2.586,0.572,5.205,1.054,7.915,1.358l0.516,0.031c1.244,0.138,2.433,0.248,3.793,0.292
	c1.594,0.022,3.181-0.009,4.732-0.086l1.347-0.229c0.613,0.412,1.315,0.711,2.172,0.744l0.468,0.012
	c1.161,0.219,2.372,0.175,3.409,0.114l1.358,0.052c2.301,0.746,4.834,1.226,7.101,1.502l-5.345,4.783l7.9-4.521
	c2.054,0.165,3.538,0.193,3.589,0.196c6.336-0.894,9.564-1.368,10.987-3.072l12.592,0.308c1.262,0.035,2.472-0.417,3.411-1.279
	c1.695,0.224,3.413-0.451,4.519-1.779c0.014-0.023,0.029-0.054,0.049-0.066c1.46-0.372,3.87-0.797,5.622-1.101
	c0.636-0.101,1.281-0.222,1.923-0.335c0.803,0.664,1.803,1.083,2.88,1.138c10.479,0.623,17.324-3.173,23.355-6.529
	c4.147-2.301,7.725-4.298,12.021-4.522l8.267,1.015c2.055,0.221,3.979-0.825,4.929-2.615c0.148,0.033,0.277,0.056,0.315,0.06
	c0.321,0.035,0.684,0.051,1.042,0.034c0.76,0.08,1.199,0.124,1.644,0.123c3.074,0.122,6.11-0.596,10.133-2.375
	c3.388-1.721,6.628-3.11,9.91-4.49c3.59-1.737,6.974-3.266,10.406-4.699c1.529-0.661,3.013-1.237,4.493-1.818
	c2.139-0.824,4.285-1.658,6.323-2.649l10.303-4.606c14.016-6.196,25.58-12.768,35.148-20.118c0.846-0.038,1.679-0.285,2.412-0.751
	c0.342-0.217,0.67-0.488,0.967-0.818c0.15-0.173,0.311-0.331,0.466-0.507c4.558-4.938,8.224-8.226,11.814-10.624
	c2.816-1.949,5.645-3.449,8.443-4.964c1.594-0.857,3.166-1.714,4.682-2.613l1.072-0.568c4.063-2.234,8.284-4.519,12.325-7.414
	c5.026-3.871,9.011-8.192,12.351-13.284c0.382-0.594,0.616-1.241,0.733-1.906c1.065-1.161,1.75-2.284,1.883-3.507
	c3.029-1.585,6.192-4.611,9.788-7.954c2.032-1.88,4.002-3.734,5.685-4.992c1.335-0.995,2.027-2.579,1.941-4.141l0.116-0.073
	c2.835-1.799,5.949-4.351,9.64-7.853c2.767-2.564,5.445-5.549,8.035-8.465c1.908-2.138,3.762-4.228,5.624-6.063
	c1.381-1.34,1.822-3.37,1.141-5.151c0.267,0.259,0.787-1.68,1.223-3.102l0.463-1.601c0.336-1.225,0.687-2.495,1.009-3.774
	c1.101,0.236,2.354,0.235,3.364,0.023c0.672,0.206,1.397,0.266,2.114,0.169c1.395-0.154,2.64-0.937,3.43-2.127
	c0.506-0.764,1.204-1.692,1.956-2.689c0.846-1.127,1.75-2.34,2.55-3.494c0.954-1.442,2.727-4.141,2.866-6.969
	c0.717-1.305,1.246-2.505,1.884-3.999c1.429-1.42,2.528-2.967,3.318-4.685c0.441-0.954,0.559-1.978,0.375-2.957
	c3.064-4.86,8.775-10.185,12.738-13.881l1.835-1.712c1.812-1.726,2.025-4.539,0.474-6.506c-0.822-1.045-1.992-1.673-3.224-1.826
	c1.428-2.29,2.822-4.995,3.938-8.317c0.31-0.892,0.349-1.81,0.141-2.682c0.259-0.213,0.495-0.363,0.655-0.401
	c1.736-0.251,3.045-1.342,3.68-2.96c0.666-1.603,0.222-3.402-0.852-4.772c0.263-0.602,1.858-6.555,3.679-8.828
	c-0.028,0.165,0.526-0.228,1-0.558c2.786-1.951,4.26-3.434,6.652-9.379c0.453-1.11,0.453-2.297,0.091-3.375
	c1.424-1.494,2.748-3.241,3.66-6.672c0.112-0.408,0.215-0.853,0.294-1.346c0.115-0.712,0.055-1.419-0.113-2.065
	c1.518-2.348,2.524-3.225,4.954-5.301l2.568-2.234c1.549-1.398,2.048-3.612,1.231-5.517c-0.054-0.106-0.101-0.21-0.156-0.308
	c4.383-7.307,6.169-11.722,6.782-14.528c3.489-2.861,5.439-9.635,7.975-21.918l0.574-2.824c0.211-0.893,0.148-1.78-0.129-2.574
	c3.292-8.406,4.335-17.248,5.359-25.866c0.443-3.773,0.881-7.544,1.526-11.235c0.293-1.732-0.37-3.496-1.751-4.595l-0.769-0.622
	c0.532-0.668,1.247-1.361,2.201-2.254c2.888-2.782,6.576-6.345,7.162-12.457c0.135-1.407-0.343-2.741-1.262-3.738
	c1.464-10.43,1.47-16.518,1.339-26.456c-0.021-1.307-0.581-2.561-1.547-3.466c-0.046-0.049-0.088-0.092-0.148-0.131
	c0.168-0.992,0.325-2.012,0.475-3.021c0.296-1.98,0.566-3.957,1.055-5.736c0.365-1.356,0.117-2.807-0.662-3.972
	c-1.856-2.736-1.968-9.481-2.091-16.627l-0.127-5.977c-0.182-6.644-0.879-12.406-2.014-17.463c0.489-0.802,0.802-1.711,0.752-2.712
	c0,0-0.09-1.798-0.292-3.595l-0.315-3.215c-0.145-1.489-1.054-2.591-2.228-3.379c0.695-1.108,1.093-2.359,0.734-3.684
	c-1.151-4.28-2.185-8.015-3.507-11.231c-0.416-1.008-0.679-1.593-1.282-2.812c-0.689-1.2-1.228-1.982-1.773-2.684
	c-1.392-1.71-2.935-2.916-4.627-3.641c-0.276-1.504-0.601-3.118-1.214-4.641c1.971-1.447,2.58-4.139,1.367-6.285
	c-3.007-5.302-5.976-11.667-8.967-18.032c-5.991-12.81-11.684-24.938-18.281-31.053l-8.552-22.189
	c-1.617-3.948-3.433-7.765-5.467-11.723c-1.902-3.621-4.261-8.061-7.465-12.373c-0.56-0.748-1.324-1.317-2.173-1.636
	c-4.758-5.624-10.484-11.87-15.86-12.738c-1.556-2.744-2.784-5.506-4.076-8.389c-0.809-1.826-1.63-3.638-2.524-5.453
	c-3.091-5.916-6.618-12.103-13.386-18.25c-0.808-0.738-1.792-1.154-2.828-1.256c-0.807-1.329-1.56-2.727-2.191-4.048
	c-0.249-0.496-0.565-0.942-0.962-1.35c-0.895-0.873-2.425-1.553-3.849-1.696c-0.128-0.242-0.253-0.535-0.394-0.875
	c-0.492-1.115-1.089-2.513-2.128-3.884c-1.122-1.487-3.016-2.196-4.839-1.848c-3.222-2.769-6.54-6.51-9.994-10.396l-5.468-6.066
	c-2.278-2.468-4.583-4.99-6.933-7.427c-3.456-3.681-7.422-6.723-10.866-9.287c-0.832-0.61-1.795-0.927-2.759-0.962
	c-3.867-5.198-10.565-10.315-18.12-15.794c-2.173-1.579-4.06-2.947-5.333-4.022c-1.137-0.951-2.59-1.315-3.968-1.08
	c-2.606-1.318-4.834-1.731-6.692-2.043c-0.202-1.643-1.232-3.132-2.844-3.852c-1.625-0.718-3.098-1.477-4.199-2.163
	c-0.012-0.118-0.012-0.238-0.026-0.348c-0.243-1.982-1.7-3.615-3.642-4.112c-3.673-0.93-5.729-0.581-7.603,0.257
	c-0.09-0.14-1.095-0.458-3.145-1.385c-1.889-0.888-4.065-0.428-5.545,1.01c-0.263,0.273-0.51,0.605-0.707,0.947
	c-0.312-0.484-0.666-0.934-1.027-1.33c-0.001-0.035,0.006-0.067,0-0.099c0.23-2.423-1.022-4.629-3.415-5.177
	c-1.01-0.237-3.388-0.696-5.61,0.033c-0.155-1.658-0.985-3.198-2.531-3.959c-3.939-1.914-8.15-3.436-12.162-4.882l-1.367-0.495
	c-4.454-1.559-8.735-2.96-12.952-4.184c-3.951-1.196-7.84-2.417-11.625-3.873c-3.416-1.234-7.296-2.727-10.939-4.653
	c-1.253-0.659-2.726-0.758-4.051-0.254c-0.405,0.152-1.761,0.422-5.633-0.367c-2.794-0.49-5.665-1.218-8.46-1.94l-1.861-0.47
	c-4.067-1.101-7.421-1.657-10.278-1.629c-5.035-1.604-9.589-2.79-16.41-4.583l-0.779-0.208c-5.616-3.681-18.739-5.922-18.878-5.961
	c-1.389-0.222-2.723,0.126-3.825,0.987c-1.211-0.363-2.411-0.093-3.503,0.445c-0.313-0.475-0.5-1.039-0.988-1.39
	c-4.491-3.221-12.128-2.654-15.073-0.455c-0.128,0.088-0.172,0.249-0.288,0.344c-2.98-0.569-4.898-1.326-6.698-2.074
	c-3.567-1.545-7.125-2.913-13.759-3.503c-1.254-0.111-2.464,0.243-3.455,1.012c-0.183-0.053-0.377-0.091-0.552-0.142
	c-2.68-0.653-6.27-1.531-9.912-0.435c-6.092-0.344-12.536-0.485-21.571-0.119l-0.689,0.03l-0.246,0.43
	c-2.739-0.799-6.346-0.253-9.593,0.367c-1.118,0.189-2.231,0.439-3.278,0.682c-0.281,0.059-0.537,0.102-0.822,0.163
	c-0.769-0.018-1.455,0.094-2.136,0.4c-0.78,0.108-1.464,0.156-1.869,0.012l-3.534-1.285l1.286,1.896
	c-1.925-0.008-3.855,0.008-5.741-0.116c-5.606-0.357-10.882-0.698-15.405,1.976c-0.692,0.453-1.133,0.867-1.528,1.42
	c-1.961,0.429-4.254,0.563-6.385,0.686c-0.089-0.006-1.322,0.08-1.423,0.088c-2.072,0.246-5.607,0.839-8.386,2.581l-8.807,2.026
	c-3.568,0.958-6.809,2.072-9.942,3.154l-4.208,1.448l1.751,0.87c-1.121,0.304-2.276,0.622-3.431,0.962l-3.76,1.198l-0.994,0.392
	c-2.173,0.606-4.236,1.219-6.286,1.839c-1.134-0.222-2.322-0.108-3.384,0.496l-2.507,1.45c-0.075,0.027-0.135,0.065-0.191,0.1
	c-0.266,0.169-0.317,0.496-0.543,0.717l-1.161,0.231c-0.037,0.009-0.05,0.011-0.087,0.02c-0.123-0.126-0.186-0.289-0.322-0.4
	c-1.167-0.932-2.697-1.261-4.166-0.926c-4.341,0.977-5.909,3.314-6.442,5.058c-0.115,0.403,0.02,0.964,0.03,1.464l-0.34,0.089
	l0.271,1.156c-1.1,0.403-2.268,0.821-3.448,1.253c-5.01,1.809-9.977,3.815-9.977,3.815l-1.002,0.39l0.184,0.691
	c-0.623,0.88-3.243,3.133-6.569,5.553c-0.663,0.07-1.375,0.142-1.845,0.236c0.065,0.002,0.456,0.203,0.67,0.27
	c-1.912-0.648-4.037-0.066-5.334,1.46l-0.025,0.037c-1.196-0.625-2.522-0.936-3.845-0.483c-1.844,0.643-2.868,1.384-3.771,2.126
	c-0.438,0.341-0.863,0.716-1.291,1.15c-0.089,0.092-0.125,0.213-0.208,0.315c-0.817,0.315-1.674,0.634-2.307,0.86
	c-1.869,0.638-3.589,1.245-5.02,2.089c-0.798,0.113-1.685,0.374-2.666,0.842c-1.101,0.565-2.543,1.459-4.068,2.49l-1.101,0.72
	c-1.581,1.031-2.378,2.837-2.174,4.626c-3.914,0.706-8.337,1.602-13.936,6.187c-0.366,0.289-0.678,0.641-0.948,1.023l-2.156,3.16
	c-2.738,0.269-5.358,1.741-7.606,3.098c-0.205-0.067-0.334-0.266-0.55-0.304c-2.164-0.391-4.336,0.7-5.301,2.675
	c-0.262,0.56-0.697,1.511-0.888,2.644l-0.239,0.475c-0.417,0.749-1.221,2.236-1.542,3.936c-0.669,0.488-1.296,0.978-1.912,1.473
	c-1.617-0.443-3.429-0.024-4.705,1.194c-1.188,1.134-2.368,2.128-3.54,3.034l-3.662,2.647c-2.217,1.449-4.312,2.694-6.365,3.87
	c-5.004,2.796-10.213,6.087-14.443,11.653c-0.426,0.558-0.706,1.179-0.861,1.818c-1.417-0.562-3.061-0.454-4.401,0.369
	c-5.178,3.349-7.037,6.046-8.581,8.376c-1.265,1.927-2.267,3.273-5.217,5.102c-0.791,0.179-1.221,0.908-1.635,1.551
	c-0.801,1.239-1.764,3.382-0.987,5.742c-2.957,2.565-4.801,5.703-6.355,8.347c-1.042,1.757-1.984,3.283-2.936,4.224
	c-1.842-0.342-3.772,0.377-4.919,2.004l-1.301,1.859c-0.352,0.399-0.658,0.628-1.489,1.107c-1.883,1.089-3.653,2.332-5.692,5.024
	c-1.635-0.888-3.663-0.739-5.149,0.373c-1.903,1.509-3.999,5.025-3.805,8.303c-0.945,0.677-1.488,0.811-2.128,0.929L103.723,191.187
	z M158.975,673.937c-0.361-0.67-0.617-1.309-0.814-1.9c0.604,0.706,0.794,1.253,1.01,1.875c0.052,0.157,0.162,0.361,0.217,0.523
	c-0.011,0.049-0.082,0.059-0.09,0.113L158.975,673.937 M167.541,675.999c0.495,0.592,0.769,1.016,0.912,1.283
	c-0.114-0.012-0.262-0.044-0.419-0.079l-1.17-1.991L167.541,675.999 M372.781,771.632c-0.016-0.004-0.019-0.009-0.039-0.017
	c0.017-0.095,0.007-0.208,0.018-0.313c0.155,0.12,0.43,0.261,0.455,0.344c0.01,0.015,0.004,0.039,0.014,0.054
	C373.054,771.683,372.964,771.642,372.781,771.632 M372.447,769.356l-0.183,0.496c-0.298-0.331-0.704-0.565-1.185-0.597
	c-0.071-0.011-0.118-0.03-0.195-0.038c0.094-0.052,0.204-0.122,0.28-0.17c0.121-0.076,0.243-0.14,0.377-0.239L372.447,769.356z
	 M373.549,767.364l-0.334-0.013c0.039-0.039,0.061-0.081,0.085-0.131L373.549,767.364z"/>
</svg>
