<?xml version="1.0" encoding="utf-8"?>
<!-- Generator: Adobe Illustrator 22.1.0, SVG Export Plug-In . SVG Version: 6.00 Build 0)  -->
<svg version="1.1" id="Layer_1" xmlns="http://www.w3.org/2000/svg" xmlns:xlink="http://www.w3.org/1999/xlink" x="0px" y="0px"
	 width="800px" height="800px" viewBox="0 0 800 800" style="enable-background:new 0 0 800 800;" xml:space="preserve">
<style type="text/css">
	.st0{fill:#3588B9;}
</style>
<path class="st0" d="M615.768,388.691l0.313-4.397c-0.365-1.742-0.142,4.039-0.793-0.845c-0.002-4.216-0.305-7.545-0.59-10.704
	c-0.153-1.578-0.305-3.114-0.532-4.684c-0.283-1.561-0.606-3.16-0.992-4.879c-1.616-9.907,2.023,4.008,0.401-4.333
	c-0.71-1.135-1.583-2.077-2.851-7.206c-0.136-1.401-0.084-2.036-0.103-2.907c-0.009-0.436-0.037-0.93-0.115-1.61
	c-0.087-0.677-0.273-1.527-0.537-2.689l-0.699,0.499c-1.165-4.231-1.982-7.653-2.574-7.504c-0.76-3.518-1.655-5.835-2.365-7.57
	c-1.736-6.461,3.123,4.106,3.934,5.518c-1.346-3.035-2.299-5.65-3.182-7.916c-0.42-1.14-0.91-2.16-1.403-3.102
	c-0.493-0.943-1.005-1.803-1.575-2.585c0.626,1.833,1.319,3.64,1.888,5.49c-2.666-5.61-3.523-8.411-4.099-10.455
	c-0.667-2-1.11-3.211-3.067-5.467c0.901,1.915,1.776,4.075,2.244,5.488c0.412,1.438,0.438,2.122-0.222,1.05
	c-0.641-1.937-1.402-3.828-2.101-5.749c-0.49-0.565,1.302,3.244-0.078,0.791c-0.574-1.647-1.605-5.108-2.102-6.624l-0.008,0.095
	l-2.461-4.957c-0.695-1.352-1.33-2.738-2.055-4.076c0.213,0.418,0.328,0.711,0.318,0.808c-0.009,0.15-0.249-0.173-0.798-1.075
	l-3.248-6.502c0.914,2.041-0.375,0.157-2.193-2.539c-5.26-7.692-2.418-7.366-7.336-12.818c0.628,0.853,0.645,1.051,1.279,1.915
	l-2.46-2.836c0.233-0.41-0.437-1.748-1.572-3.546c-1.21-1.741-2.899-3.926-4.589-6.112c-1.647-2.221-3.49-4.28-4.777-5.975
	c-1.297-1.686-2.101-2.958-1.913-3.397c-2.01-1.797-2.179-1.763-1.297-0.628c0.852,1.162,2.694,3.491,4.628,6.345L562,257.038
	c1.456,1.781,2.82,3.155,4.302,5.123c-2.728-2.56-4.985-5.361-7.009-7.819c-2.05-2.432-3.708-4.664-4.942-6.282
	c-1.07-0.943-0.912-0.31-1.161-0.2c-0.238,0.097-0.921-0.283-3.744-3.172c-8.041-8.127,2.433,0.586-2.409-4.307
	c-1.385-0.954-2.893-1.764-4.325-2.645c-1.545-1.564-3.043-2.979-4.506-4.294c-1.497-1.275-3-2.4-4.461-3.508
	c-1.468-1.097-2.908-2.161-4.366-3.204c-1.498-0.99-2.998-1.984-4.521-3.033c-1.323-1.028-1.94-1.58-2.22-1.896
	c-1.637-1.098-3.361-2.145-5.015-3.29c-1.661-1.135-3.289-2.311-4.869-3.459c-3.229-2.176-6.302-4.182-8.952-5.548
	c0.554,0.442-0.227,0.095-1.295-0.27c-1.059-0.381-2.352-0.878-2.721-0.945c-3.099-1.782-6.169-3.644-9.387-5.219
	c4.243,2.15,3.793,2.59,4.352,3.417c-1.471-0.791-2.553-1.372-3.519-1.892c-0.962-0.528-1.802-1.003-2.825-1.502
	c1.192,0.737,2.389,1.48,0.686,0.962l-4.938-2.696c-1.669-0.853-3.369-1.644-5.057-2.471c0.649,0.162,1.864,0.606,2.879,0.982
	c-2.615-1.014-8.135-3.66-12.123-4.448c0.274,0.3,1.521,0.916,1.781,1.214c0.844,0.138,1.582,0.308,2.237,0.5
	c0.646,0.215,1.206,0.463,1.71,0.712c1.007,0.501,1.782,1.038,2.523,1.536c-7.165-2.895-1.825-0.631-5.436-1.561
	c-5.14-1.761-7.052-3.121-5.561-3.071c-1.481-0.437-2.696-0.842-3.811-1.127c-1.116-0.284-2.103-0.545-3.087-0.828
	c-1.971-0.56-3.924-1.236-6.901-2.317c0.334,0.305,0.653,0.658,0.979,0.984c-1.837-0.589-3.714-1.033-5.572-1.557l4.361,1.875
	c-5.441-1.014-5.865-1.417-6.445-1.866c-0.289-0.225-0.615-0.46-1.626-0.789c-0.506-0.163-1.181-0.356-2.111-0.569
	c-0.937-0.175-2.129-0.371-3.655-0.594l-0.145,0.594c-4.609-1.031-6.05-2.453-9.817-2.14c-4.529-0.948,7.953,0.144-2.796-1.349
	c-0.97,0.036-2.481-0.019-4.136-0.116c-1.655-0.104-3.469-0.088-5.023-0.165c-2.974-0.454,1.223-0.539,3.831-0.341
	c-3.478-0.352-5.877-0.402-7.651-0.397c-1.954,0.027-3.175,0.15-4.344,0.376c-1.167,0.199-2.275,0.383-3.998,0.444
	c-0.861,0.031-1.876,0.031-3.13-0.013c-1.254-0.034-2.746-0.171-4.565-0.192c2.492-0.281,1.454-0.55,1.262-0.783
	c-0.191-0.247,0.473-0.446,6.402-0.272c-5.672-0.624-11.122,0.881-17.032,0.351l3.866,0.68c-2.112,0.064-4.507-0.167-5.659-0.132
	l0.512,0.563c-3.648-0.247-7.021,0.12-10.01,0.454c-2.98,0.463-5.587,0.838-7.828,0.428c1.566,0.348,0.219,0.503-1.87,0.669
	c-2.088,0.172-4.896,0.561-6.284,1.002c1.506-0.075,3.311-0.301,5.187-0.585c1.886-0.22,3.852-0.45,5.658-0.661
	c1.804-0.217,3.449-0.406,4.697-0.484c1.248-0.084,2.108,0.039,2.327,0.258c-1.372,0.229-2.677,0.361-3.973,0.48
	c-1.296,0.116-2.582,0.23-3.89,0.545c1.876-0.089,4.605-0.168,5.331-0.056c-2.248,0.429-4.261,0.718-6.107,0.918
	c-1.843,0.217-3.531,0.265-5.088,0.454c-3.125,0.299-5.839,0.42-8.604,0.781l9.695-1.496c-0.937-0.849-4.371,0.606-7.226,0.319
	c-1.187,0.35-2.323,0.601-3.419,0.812c-1.086,0.258-2.134,0.462-3.157,0.654c-2.045,0.383-3.99,0.717-5.907,1.33
	c1.036-0.245,1.13-0.166,2.168-0.412c-1.307,0.3-2.491,0.593-3.566,0.89c-1.063,0.345-2.021,0.682-2.893,1.007
	c-1.743,0.65-3.138,1.257-4.335,1.81c-1.194,0.564-2.205,1.025-3.143,1.51c-0.939,0.483-1.832,0.899-2.832,1.244
	c-1.946,0.734-4.833,1.58-6.904,2.127c-2.044,0.619-3.304,0.855-2.048,0.132c-1.629,0.529,1.656-0.82,4.708-1.833
	c3.024-1.079,5.704-2.176,2.597-1.81c-1.332,0.846-2.749,1.487-4.322,2.055c-1.583,0.544-3.256,1.196-5.184,1.823
	c-1.913,0.662-4.069,1.34-6.453,2.322c-2.36,1.038-4.987,2.295-7.913,3.9c5.534-1.918-2.75,2.17,2.15,0.396
	c-2.921,1.207-4.386,1.942-5.517,2.366c-1.125,0.437-1.877,0.64-3.23,1.095l-1.479,1.284c-1.974,0.686-3.053,1.126-3.789,1.378
	c-0.735,0.255-1.111,0.355-1.596,0.534c-0.484,0.18-1.077,0.439-2.248,1.016c-0.583,0.294-1.314,0.661-2.25,1.133
	c-0.467,0.239-0.985,0.505-1.561,0.801c-0.561,0.323-1.179,0.678-1.861,1.071c3.741-1.963-3.887,3.297-1.005,1.843
	c-2.9,1.91-5.867,3.569-8.064,4.867l0.415-0.212c-2.624,1.791-4.446,3.096-5.853,4.14c-1.406,1.045-2.326,1.926-3.268,2.716
	c-0.932,0.804-1.841,1.578-3.105,2.573c-0.632,0.498-1.353,1.05-2.211,1.689c-0.835,0.668-1.795,1.435-2.925,2.339l0.687-0.969
	c-2.972,2.358-6.19,4.836-9.205,7.738c-1.53,1.428-3.085,2.878-4.653,4.341c-1.487,1.546-2.987,3.105-4.49,4.668
	c-3.068,3.069-5.805,6.462-8.628,9.642c-0.713,0.79-1.38,1.609-2.024,2.437c-0.655,0.819-1.305,1.632-1.949,2.437
	c-1.294,1.606-2.564,3.181-3.8,4.714c0.959-1.395,1.964-2.757,2.953-4.134c-0.287,0.38-0.713,0.905-1.24,1.543
	c-0.726,0.895-1.682,1.963-2.575,3.207c-1.835,2.449-3.876,5.255-5.116,7.381c0.593-0.788,1.678-2.096,2.179-2.866
	c0.089,0.149-0.047,0.679-0.469,1.562c-0.211,0.441-0.494,0.97-0.856,1.583c-0.358,0.617-0.75,1.348-1.247,2.149l-1.189,0.96
	l-0.509,1.489c-3.099,4.851,0.329-1.798-2.778,3.064c-0.189,0.872-0.997,2.684-2.186,4.951c-0.594,1.134-1.278,2.385-2.012,3.699
	c-0.366,0.658-0.743,1.333-1.124,2.017c-0.354,0.7-0.714,1.41-1.075,2.123c-0.721,1.426-1.448,2.863-2.15,4.251
	c-0.685,1.396-1.395,2.72-1.897,4.007c-1.063,2.546-1.857,4.674-2.087,5.923c-2.526,3.156,4.347-9.964,1.758-6.443
	c-0.587,1.663-0.742,2.46-2.209,5.899l-0.016-1.419c-0.428,1.003-0.84,1.967-1.237,2.897c-0.197,0.465-0.39,0.922-0.58,1.371
	c-0.168,0.458-0.333,0.908-0.495,1.349c-0.644,1.768-1.243,3.414-1.81,4.974c-0.546,1.567-1.137,3.018-1.566,4.471
	c-0.444,1.446-0.873,2.842-1.297,4.223c-0.43,1.378-0.855,2.741-1.287,4.127c-0.461,1.376-0.773,2.822-1.197,4.298
	c-0.41,1.48-0.836,3.019-1.289,4.655c-0.225,0.818-0.482,1.654-0.707,2.528c-0.208,0.879-0.424,1.787-0.647,2.728l0.265-0.576
	c-0.998,5.423-1.84,8.268-2.719,10.612c0.074,1.181,0.913-2.701,0.779-0.544c-0.803,2.313-1.351,4.686-1.75,7.019
	c-0.098,0.584-0.195,1.164-0.269,1.743c-0.048,0.582-0.096,1.16-0.143,1.733c-0.083,1.146-0.144,2.271-0.198,3.366
	c-0.098,2.191-0.205,4.256-0.326,6.139c-0.069,1.889-0.233,3.588-0.613,5.04c0.564-0.3,0.916,2.05,1.252,4.271
	c-0.232,4.083-0.361,8.192-0.361,12.333c0,62.068,26.377,117.966,68.519,157.128c0.097,0.1,0.194,0.201,0.281,0.304
	c0.237,0.209,0.426,0.371,0.59,0.507c4.131,3.796,8.405,7.439,12.824,10.906c0.609,0.626,0.973,1.094,0.971,1.279
	c1.108,0.733,0.267-0.15,0.046-0.5c0.285,0.221,0.572,0.439,0.858,0.658c1.139,1.008,2.276,2.02,3.482,2.943
	c0.175,0.005,0.235-0.057,0.214-0.17c5.631,4.129,11.47,7.988,17.5,11.562l-1.891-1.057c-0.478-0.232-0.94-0.492-1.411-0.737
	c1.258,0.789,2.59,1.454,3.903,2.149c5.169,3.041,10.469,5.88,15.903,8.488c0.469,0.407,2.389,1.455,3.649,2.2
	c1.36,0.538,2.851,1.152,4.426,1.819c1.566,0.687,3.29,1.253,5.015,1.935c1.731,0.667,3.506,1.351,5.275,2.032
	c1.781,0.649,3.585,1.213,5.317,1.806c1.737,0.579,3.418,1.14,4.994,1.665c1.596,0.461,3.095,0.857,4.434,1.216
	c0.926,0.246,1.772,0.464,2.534,0.652c10.274,2.828,20.856,4.908,31.686,6.184c1.406,0.522,2.19,0.983,2.146,1.334
	c-2.108-0.425-5.261-1.062-8.057-1.517c-1.403-0.2-2.7-0.474-3.743-0.611c-1.043-0.14-1.829-0.173-2.186-0.04
	c4.129,1.198,11.469,2.147,11.784,2.735c4.504-0.33-7.991-1.284-2.127-1.29c2.973,0.396,4.215,0.858,5.592,1.173
	c-1.953-0.552,2.749-0.397,3.658-0.556c2.421,0.182,4.586,0.321,6.633,0.437c2.05,0.072,3.986,0.026,5.941,0.035
	c1.954-0.007,3.929-0.015,6.066-0.023c2.135-0.102,4.431-0.199,7.026-0.284c0.046-0.012,0.1-0.027,0.152-0.041
	c2.34-0.081,4.671-0.199,6.992-0.354c0.739,0.052,1.446,0.115,2.081,0.199c2.237,0.266,3.624,0.636,2.697,0.986
	c2.994-0.167,4.544-0.523,5.991-0.769c1.447-0.255,2.783-0.469,5.33-0.669c-7.973,1.817,1.563-0.323,2.555,0.4
	c5.167-0.815,1.732-0.732,4.064-1.349c0.868-0.061,2.969-0.146,3.149,0.058c2.587-1.03-3.947-0.728-3.645-1.504
	c2.62-0.453,5.222-0.953,7.809-1.5l0.014,0.312l1.457-0.326l-0.354-0.23c2.521-0.547,5.03-1.127,7.518-1.762
	c0.236,1.087-0.554,2.606-2.61,3.676c0.252,0.2,1.434-0.211,2.825-0.742c1.397-0.512,2.959-1.309,4.06-1.628
	c3.083-1.319,5.577-1.792,7.923-2.327c2.336-0.557,4.571-1.016,7.144-2.056l-4.144,0.923c0.4-0.245,2.546-0.955,4.76-1.624
	c1.115-0.314,2.218-0.692,3.131-0.991c0.915-0.293,1.639-0.502,1.966-0.552c0.083-0.337-4.426,0.177-2.203-1.063
	c2.281-0.94,4.571-1.767,6.724-2.468c2.155-0.695,4.1-1.437,5.807-1.918c3.393-1.009,5.666-1.375,5.569-0.866
	c-4.783,1.803-9.474,3.771-14.346,5.257c-0.121,0.423,2.468-0.389,5.047-1.222c2.536-0.931,5.079-1.847,4.969-1.33l3.189-1.511
	l1.593-0.757l1.556-0.832l6.22-3.327c-1.599,0.794-6.527,3.091-4.801,1.768c5.388-2.726,2.74-1.522,6.149-3.68
	c-1.628,0.623-3.642,1.274-5.777,1.973c-2.149,0.67-4.386,1.458-6.657,1.973c-0.586,0.145-1.165,0.287-1.736,0.427
	c3.565-1.64,7.075-3.378,10.531-5.205c0.209-0.053,0.424-0.109,0.629-0.159c1.812-0.41,3.373-0.854,4.676-1.167
	c1.308-0.31,2.321-0.55,2.949-0.699c4.611-2.858,2.177-3.205,0.924-2.823c2.303-1.293,3.99-2.313,5.484-3.021
	c1.486-0.722,2.732-1.208,3.981-1.702c0.625-0.247,1.251-0.496,1.908-0.777c0.652-0.289,1.311-0.647,2.041-1.051
	c1.455-0.818,3.148-1.902,5.305-3.502l-3.096,2.607c1.068-0.689,3.468-2.393,5.455-3.91c1.952-1.563,3.567-2.841,3.264-2.425
	c1.33-1.52,2.223-3.295,0.732-2.535c1.257-0.72,2.541-1.414,3.767-2.185l4.054-2.571c-1.156,0.802-1.256-0.716-1.847-0.491
	c2.833-2.515,5.834-3.2,4.139-1.468c1.284-1.366,2.101-2.371,2.74-3.107c0.64-0.735,1.073-1.232,1.477-1.696
	c0.804-0.93,1.471-1.756,3.288-4.199c1.63-1.474,0.778,1.061-0.315,2.262c1.951-1.576,3.312-3.02,4.45-4.22
	c1.131-1.207,1.994-2.215,2.763-3.117c-4.14,3.826-4.264,2.307-4.48,1.113c1.332-1.381,2.648-2.776,3.943-4.192
	c3.273-2.379,6.481-4.873,9.698-7.421c-0.526,0.351-2.331,0.669-2.376,0.5c0.466-0.091,1.589-1.16,3.107-2.842
	c0.762-0.838,1.626-1.826,2.558-2.919c0.916-1.104,1.972-2.259,2.915-3.582c1.926-2.614,4.05-5.418,5.903-8.175
	c1.801-2.792,3.474-5.438,4.781-7.547l-0.812,1.251c-0.717,0.737,0.078-0.691,1.186-2.726c1.091-2.045,2.603-4.635,3.637-6.055
	c-0.483,0.406-0.826,1.135-1.579,2.424c1.291-3.071,2.753-4.704,4.046-6.474c1.331-1.743,2.665-3.531,3.778-6.752
	c-2.703,5.505-3.637,6.375-3.871,5.899c0.657-1.069,1.457-2.53,2.288-4.077c0.414-0.774,0.839-1.568,1.256-2.347
	c0.384-0.794,0.761-1.573,1.112-2.299c1.421-2.896,2.562-4.909,2.638-3.541c0.535-1.531,1.173-2.926,1.515-3.969
	c0.335-1.047,0.464-1.703,0.117-1.695c1.709-3.74,3.586-7.435,5.06-11.292c-0.419,0.831-1.025,1.457,0.05-1.992
	c-0.515,1.652-1.105,3.265-1.706,4.81c-0.619,1.538-1.347,2.973-1.962,4.338c-1.275,2.713-2.239,5.099-2.611,6.919
	c-0.792-0.149-0.116-2.661-2.077,0.072c0.754-1.475,1.36-2.913,1.973-4.263c0.612-1.35,1.207-2.623,1.787-3.833
	c0.571-1.213,1.166-2.35,1.679-3.462c0.508-1.116,0.994-2.185,1.465-3.219c0.983-2.064,1.901-3.99,2.8-5.876
	c0.831-1.915,1.619-3.806,2.417-5.772l0.668-2.872c0.228-0.955,0.451-1.911,0.608-2.883l1.049-5.797l0.461-0.406l-0.422-2.18
	c0.556-1.381,0.837-2.282,0.824-2.595c-0.032-0.28-0.214,0.062-0.447,0.606c0.261-1.206,0.537-2.295,0.732-2.853
	c-0.385-0.539-1.284,1.4-2.152,3.466c-0.076,1.056-0.154,2.142-0.232,3.235c-0.526,1.174-1.011,2.149-1.271,2.266
	c0.337-1.448,0.651-2.904,0.958-4.364c0.175-0.365,0.357-0.745,0.546-1.137c0.005-0.344,0.009-0.691,0.014-1.024
	c-0.089,0.334-0.197,0.643-0.299,0.962c0.109-0.532,0.202-1.07,0.307-1.604c-0.003,0.214-0.005,0.419-0.008,0.642
	c1.559-5.367,3.398-11.584,3.115-6.541c0.098-1.14,0.259-2.269,0.305-3.414l0.168-3.426c0.932-3.92,1.371-5.548,1.684-7.405
	c0.27-1.869,0.571-3.953,1.274-8.818c-0.272-0.553-0.735,2.033-0.831,0.264c0.431-1.761,0.475-3.746,0.49-5.739
	c0.001-1.994-0.1-4-0.209-5.827c-0.028-0.456-0.056-0.902-0.083-1.334c-0.048-0.431-0.095-0.849-0.139-1.25
	c-0.087-0.802-0.162-1.536-0.21-2.181c-0.097-1.289-0.091-2.22,0.122-2.614c0.051-5.762,0.766-2.428,0.823-6.109
	C616.036,389.4,615.864,389.754,615.768,388.691z M608.007,455.891c0.339-1.899,0.665-3.604,1.071-5.081
	C608.815,452.916,608.532,454.778,608.007,455.891z M604.269,329.713c-0.547-1.288-0.998-2.25-1.341-3.127
	c-0.365-0.869-0.583-1.668-0.598-2.662c0.388,0.493,0.79,1.537,1.154,2.652C603.798,327.709,604.066,328.916,604.269,329.713z"/>
</svg>
