<?xml version="1.0" encoding="utf-8"?>
<!-- Generator: Adobe Illustrator 22.1.0, SVG Export Plug-In . SVG Version: 6.00 Build 0)  -->
<svg version="1.1" id="Layer_1" xmlns="http://www.w3.org/2000/svg" xmlns:xlink="http://www.w3.org/1999/xlink" x="0px" y="0px"
	 width="800px" height="800px" viewBox="0 0 800 800" style="enable-background:new 0 0 800 800;" xml:space="preserve">
<style type="text/css">
	.st0{fill:#44A3CB;}
</style>
<path class="st0" d="M205.654,188.079c-0.189,0.165-0.398,0.35-0.654,0.581c-0.079,0.088-0.166,0.174-0.25,0.261
	c-56.262,52.214-91.483,126.787-91.482,209.598c0,5.533,0.174,11.026,0.484,16.481c-0.257,2.937-0.526,6.02-1.072,5.607
	c0.404,1.94,0.61,4.203,0.73,6.714c0.183,2.506,0.383,5.249,0.594,8.149c0.113,1.452,0.229,2.944,0.348,4.464
	c0.072,0.759,0.145,1.526,0.219,2.299c0.105,0.768,0.239,1.539,0.371,2.315c0.537,3.101,1.22,6.262,2.146,9.366
	c0.27,2.85-0.793-2.321-0.788-0.771c0.977,3.151,2.058,6.947,3.47,14.139l-0.305-0.778c0.295,1.252,0.579,2.459,0.854,3.628
	c0.299,1.163,0.64,2.274,0.94,3.361c0.606,2.173,1.177,4.219,1.725,6.185c0.269,0.985,0.533,1.95,0.793,2.902
	c0.249,0.955,0.511,1.891,0.824,2.804c0.587,1.838,1.164,3.646,1.747,5.474c0.578,1.831,1.162,3.68,1.768,5.597
	c0.283,0.966,0.645,1.923,1.011,2.903c0.364,0.982,0.736,1.986,1.119,3.019c0.769,2.066,1.581,4.247,2.454,6.589
	c0.219,0.585,0.443,1.181,0.67,1.788c0.256,0.594,0.517,1.199,0.782,1.816c0.535,1.232,1.089,2.509,1.666,3.838l-0.184-1.795
	c1.977,4.56,2.247,5.59,3.078,7.775c3.134,4.827-5.711-12.749-2.696-8.401c0.411,1.616,1.519,4.422,2.959,7.794
	c0.681,1.705,1.632,3.46,2.547,5.314c0.936,1.844,1.905,3.753,2.866,5.647c0.481,0.947,0.96,1.89,1.432,2.82
	c0.493,0.918,1.015,1.803,1.501,2.678c0.982,1.744,1.902,3.401,2.707,4.898c1.612,2.994,2.745,5.367,3.107,6.456
	c4.129,6.456-0.648-2.237,3.473,4.207l0.795,1.902l1.429,1.375c0.668,1.061,1.203,2.024,1.697,2.831c0.5,0.803,0.9,1.49,1.206,2.058
	c0.613,1.137,0.854,1.799,0.784,1.963c-0.677-1.014-2.079-2.778-2.858-3.829c1.715,2.776,4.412,6.508,6.824,9.776
	c1.174,1.659,2.43,3.088,3.385,4.282c0.681,0.835,1.238,1.528,1.621,2.028c-1.327-1.804-2.677-3.589-3.966-5.417
	c1.605,2.064,3.319,4.135,5.018,6.283c0.853,1.072,1.713,2.153,2.581,3.244c0.433,0.546,0.867,1.094,1.303,1.644
	c0.459,0.531,0.92,1.063,1.382,1.597c1.852,2.133,3.726,4.29,5.609,6.458c0.956,1.071,1.85,2.203,2.862,3.229l2.985,3.125
	c1.994,2.078,3.984,4.152,5.957,6.207c2.077,1.95,4.137,3.883,6.163,5.785c3.989,3.875,8.237,7.198,12.141,10.386l-0.982-1.208
	c1.489,1.216,2.755,2.25,3.856,3.149c1.126,0.867,2.084,1.604,2.931,2.257c1.681,1.323,2.901,2.339,4.153,3.391
	c1.267,1.033,2.504,2.185,4.381,3.564c1.878,1.378,4.301,3.109,7.777,5.51l-0.537-0.303c2.861,1.812,6.778,4.065,10.642,6.594
	c-3.764-2.037,6.437,4.855,1.537,2.13c0.899,0.533,1.714,1.015,2.453,1.453c0.76,0.403,1.443,0.765,2.058,1.091
	c1.233,0.645,2.195,1.148,2.963,1.55c1.54,0.793,2.315,1.161,2.943,1.428c0.634,0.252,1.105,0.439,2.061,0.819
	c0.953,0.383,2.353,1.031,4.934,2.031l2.05,1.553c1.763,0.676,2.736,1,4.212,1.623c1.484,0.606,3.419,1.614,7.299,3.242
	c-6.456-2.498,4.614,2.835-2.66,0.103c3.931,2.046,7.43,3.694,10.562,5.083c3.165,1.314,6.013,2.254,8.542,3.169
	c1.266,0.454,2.462,0.882,3.602,1.291c1.134,0.426,2.213,0.833,3.268,1.185c2.096,0.744,3.999,1.541,5.813,2.533
	c4.052,0.717,0.471-0.676-3.559-2.093c-1.01-0.349-2.046-0.707-2.999-1.036c-0.956-0.32-1.798-0.695-2.467-0.948
	c-1.329-0.529-1.892-0.768-0.811-0.413c-1.7-0.888-0.056-0.489,2.642,0.398c2.735,0.789,6.568,1.954,9.167,2.907
	c1.332,0.458,2.535,0.973,3.802,1.56c1.266,0.589,2.635,1.129,4.245,1.805c1.615,0.661,3.491,1.395,5.822,2.206
	c1.166,0.405,2.445,0.83,3.862,1.274c1.433,0.379,3.008,0.761,4.744,1.16c-1.38-0.325-1.496-0.255-2.873-0.579
	c2.561,0.754,5.135,1.238,7.845,1.779c1.355,0.271,2.746,0.555,4.189,0.896c1.456,0.278,2.97,0.592,4.556,1.008
	c3.742-0.092,8.358,1.536,9.546,0.777l-12.878-2.075c3.666,0.528,7.253,0.821,11.397,1.314c2.065,0.298,4.307,0.4,6.759,0.702
	c2.456,0.279,5.138,0.652,8.137,1.17c-0.958,0.073-4.578-0.132-7.066-0.305c1.748,0.364,3.456,0.534,5.177,0.706
	c1.722,0.177,3.456,0.369,5.286,0.617c-0.283,0.198-1.422,0.31-3.077,0.169c-1.656-0.134-3.841-0.392-6.238-0.685
	c-2.398-0.288-5.01-0.602-7.515-0.902c-2.491-0.396-4.883-0.732-6.871-0.902c0.926,0.268,2.323,0.525,3.831,0.763
	c1.51,0.225,3.122,0.5,4.512,0.593c2.77,0.258,4.559,0.47,2.506,0.731c2.94-0.29,6.409,0.193,10.371,0.777
	c3.975,0.411,8.456,0.852,13.294,0.721l-0.668,0.524c0.766-0.008,1.938,0.058,3.276-0.014c1.337-0.043,2.832-0.069,4.236-0.026
	l-5.123,0.612c3.929-0.216,7.688,0.017,11.421,0.286l2.794,0.201c0.93,0.07,1.86,0.047,2.791,0.062
	c1.861,0.006,3.726-0.031,5.603-0.165c-3.934,0.104-6.122,0.118-7.294,0.077c-1.172-0.042-1.329-0.187-1.203-0.285
	c0.254-0.221,1.634-0.467-1.679-0.76c2.417,0.011,4.402-0.152,6.069-0.193c1.667-0.054,3.016-0.064,4.16-0.042
	c2.289,0.042,3.758,0.208,5.305,0.386c1.548,0.215,3.165,0.287,5.754,0.26c2.332-0.05,5.476-0.149,10.031-0.591
	c-3.465,0.268-8.859,0.284-4.947-0.223c1.033-0.045,2.148-0.093,3.281-0.142c1.133-0.047,2.285-0.065,3.379-0.174
	c2.193-0.17,4.193-0.293,5.472-0.304c14.272-1.935-2.27-0.305,3.76-1.427c4.965,0.146,6.932-1.363,13.079-2.647l0.151,0.565
	c2.023-0.314,3.605-0.581,4.85-0.81c1.235-0.281,2.135-0.526,2.81-0.725c1.35-0.403,1.796-0.659,2.193-0.901
	c0.795-0.485,1.385-0.912,8.6-2.346l-5.871,2.184l3.719-0.966c1.237-0.333,2.487-0.611,3.702-1.022
	c-0.454,0.349-0.901,0.735-1.365,1.055c3.976-1.342,6.58-2.206,9.199-2.947c1.308-0.375,2.617-0.728,4.095-1.117
	c1.478-0.39,3.085-0.944,5.047-1.541c-1.931,0.22,0.687-1.347,7.527-3.682c1.201-0.304,1.641-0.395,1.785-0.386
	c0.146,0.014-0.001,0.132,0.002,0.177c0.003,0.044,0.156,0.015,0.903-0.265c0.748-0.281,2.09-0.812,4.471-1.773
	c-1.012,0.595-2.07,1.232-3.42,1.864c-0.676,0.313-1.421,0.635-2.275,0.931c-0.866,0.265-1.836,0.517-2.94,0.75
	c-0.37,0.326-2.048,1.079-2.436,1.408c5.241-1.192,12.604-4.591,16.078-5.935c-1.345,0.507-2.953,1.107-3.802,1.353
	c2.26-1.049,4.537-2.05,6.775-3.135l6.624-3.437c2.227-0.767,0.607,0.158-1.004,1.075c1.364-0.651,2.493-1.253,3.784-1.925
	c1.288-0.679,2.76-1.381,4.706-2.447c-0.823,0.932-0.311,1.344-5.976,4.118c4.298-2.027,8.401-4.438,12.546-6.742
	c0.47-0.125,2.161-0.833,3.541-1.386c1.392-0.53,2.402-1.037,1.651-0.48c3.488-1.859,7.605-4.44,11.934-7.254
	c2.117-1.486,4.301-3.012,6.517-4.5c2.207-1.501,4.498-2.889,6.65-4.375c0.391-0.391,1.229-1.094,3.001-2.438
	c2.03-1.384,4.002-2.729,5.969-4.071c1.921-1.404,3.816-2.835,5.756-4.303c1.928-1.481,3.92-2.978,5.915-4.66
	c1.95-1.735,3.959-3.588,6.052-5.616l2.78-1.847l1.393-0.926l1.345-0.982c6.476-6.439-7.194,5.38,3.569-5.321
	c3.787-3.8,4.645-4.355,4.893-4.293c0.264,0.077-0.031,0.832,1.356-0.451c1.696-2.088,3.989-4.963,6.765-8.143
	c0.349-0.396,0.704-0.798,1.064-1.207c0.345-0.422,0.696-0.85,1.051-1.283c0.714-0.862,1.457-1.738,2.226-2.619
	c1.539-1.763,3.185-3.549,4.933-5.304c-2.017,2.573-3.79,4.429-5.741,6.777l5.286-5.384c-2.681,3.688-5.16,6.742-6.321,8.254
	c-0.572,0.765-0.868,1.097-0.637,0.987c0.234-0.107,0.914-0.728,2.199-1.961c-0.13-0.476,0.998-2.107,2.752-4.312
	c1.741-2.217,4.193-4.942,6.383-7.883c2.248-2.893,4.495-5.787,6.136-8.068c1.542-2.357,2.499-4.083,2.319-4.534l3.156-3.843
	c-0.837,1.15-0.89,1.391-1.718,2.527c6.273-7.407,3.137-6.541,10.053-16.817c0.625-0.883,1.159-1.727,1.61-2.441
	c0.458-0.71,0.843-1.284,1.117-1.66c0.548-0.752,0.65-0.714-0.002,0.615l4.453-8.557c0.724-1.2,1.016-1.645,1.003-1.458
	c-0.001,0.119-0.147,0.469-0.428,1.005l0.241-0.427l0.829-1.641l1.647-3.287l3.292-6.572l-0.006,0.118
	c0.391-0.976,0.933-2.614,1.511-4.263c0.587-1.642,1.184-3.31,1.575-4.404c1.749-3.299-0.611,1.774-0.032,0.99
	c0.975-2.532,2.035-5.025,2.936-7.58c0.8-1.457,0.69-0.579,0.088,1.309c-0.676,1.856-1.869,4.71-3.055,7.259
	c2.307-3.128,2.93-4.716,3.883-7.342c0.832-2.684,2.072-6.368,5.435-13.88c-0.78,2.446-1.726,4.834-2.582,7.257
	c0.672-1.07,1.295-2.233,1.91-3.498c0.615-1.265,1.242-2.625,1.779-4.143c1.132-3.017,2.372-6.492,4.049-10.547
	c-0.96,1.898-6.981,16.072-4.527,7.55c0.897-2.322,2.063-5.402,3.197-10.037c0.569,0.13,1.707-4.396,3.266-10.011l0.637,0.583
	c0.37-1.536,0.644-2.656,0.786-3.548c0.131-0.894,0.198-1.543,0.243-2.113c0.089-1.14,0.09-1.966,0.338-3.811
	c1.655-6.819,2.585-8.116,3.334-9.659c2.104-11.074-2.309,7.47-0.108-5.671c0.483-2.288,0.899-4.414,1.273-6.486
	c0.299-2.084,0.511-4.122,0.733-6.216c0.417-4.19,0.896-8.602,0.988-14.198c0.761-6.497,0.384,1.177,0.782-1.144l-0.175-5.824
	c0.122-1.413,0.276-0.947,0.354-0.709c0.047-1.221-0.019-1.86-0.101-2.251c-0.077-0.39-0.169-0.532-0.258-0.761
	c-0.178-0.458-0.343-1.264-0.351-5.093c-0.199-0.522-0.197-1.76-0.092-3.476c0.052-0.858,0.13-1.835,0.221-2.901
	c0.046-0.533,0.095-1.089,0.145-1.663c0.022-0.574,0.044-1.167,0.067-1.774c0.087-2.429,0.164-5.094,0.145-7.744
	c-0.039-2.649-0.076-5.286-0.555-7.634c0.042-2.345,0.558,1.098,0.802,0.369c-0.81-6.473-1.157-9.247-1.468-11.733
	c-0.36-2.474-0.877-4.643-1.951-9.88l-0.322-4.544c-0.095-1.518-0.341-3.014-0.505-4.524c0.602,6.671-1.578-1.636-3.436-8.837
	c0.016,0.273,0.031,0.523,0.046,0.787c-0.144-0.732-0.273-1.469-0.423-2.198c0.134,0.461,0.264,0.929,0.377,1.412
	c-0.026-0.44-0.053-0.898-0.08-1.352c-0.211-0.519-0.415-1.022-0.612-1.506c-0.409-1.945-0.828-3.886-1.276-5.817
	c0.274,0.249,0.807,1.526,1.394,3.052c0.167,1.444,0.333,2.878,0.494,4.271c0.975,2.791,1.97,5.409,2.307,4.723
	c-0.224-0.748-0.562-2.202-0.893-3.81c0.26,0.733,0.458,1.196,0.471,0.83c-0.014-0.41-0.322-1.62-0.986-3.473l0.231-2.827
	l-0.482-0.569l-1.497-7.681c-0.226-1.287-0.539-2.553-0.859-3.818l-0.939-3.801c-0.979-2.635-1.935-5.175-2.947-7.75
	c-1.108-2.538-2.238-5.129-3.451-7.908c-0.586-1.391-1.191-2.829-1.824-4.331c-0.644-1.496-1.398-3.023-2.125-4.652
	c-0.725-1.629-1.486-3.338-2.291-5.143c-0.79-1.81-1.577-3.734-2.565-5.708c2.383,3.74,1.336,0.454,2.12,0.373
	c0.345,1.169,0.776,2.573,1.384,4.114c0.601,1.544,1.337,3.244,2.142,5.064c0.788,1.827,1.718,3.748,2.515,5.803
	c0.773,2.063,1.543,4.212,2.242,6.403c-1.46-4.574-0.786-3.694-0.276-2.575c-1.868-5.155-4.275-10.097-6.46-15.107
	c0.351,0.056,0.137-0.799-0.333-2.179c-0.48-1.376-1.336-3.226-2.092-5.239c0.115,1.722-1.329-0.985-3.184-4.853
	c-0.461-0.969-0.954-2.007-1.458-3.067c-0.549-1.038-1.108-2.097-1.654-3.129c-1.094-2.063-2.143-4.014-2.984-5.453
	c0.17-0.558,1.267,0.673,4.895,7.973c-1.64-4.202-3.286-6.637-4.927-9.025c-1.589-2.421-3.401-4.672-5.252-8.682
	c0.999,1.717,1.477,2.674,2.048,3.254c-1.314-1.923-3.319-5.372-4.794-8.079c-0.712-1.369-1.422-2.473-1.758-3.159
	c-0.35-0.678-0.391-0.898,0.044-0.383l1.077,1.665c-1.75-2.797-3.98-6.31-6.372-10.023c-0.58-0.94-1.237-1.848-1.898-2.76
	c-0.659-0.914-1.322-1.833-1.983-2.75c-1.332-1.825-2.657-3.641-3.93-5.385c-1.242-1.767-2.632-3.313-3.833-4.795
	c-1.222-1.466-2.352-2.796-3.341-3.93c-1.971-2.276-3.404-3.75-3.947-3.935c0.019-0.19,2.086,0.511,2.721,1.028
	c-4.026-3.57-8.048-7.092-12.172-10.464c-1.738-1.901-3.506-3.774-5.294-5.628c0.021-1.329-0.087-3,5.286,2.146
	c-1.04-1.182-2.205-2.503-3.712-4.103c-1.515-1.591-3.312-3.521-5.862-5.658c0.733,0.786,1.477,1.935,1.762,2.64
	c0.259,0.732,0.12,0.963-0.969-0.011c-2.555-3.115-3.477-4.175-4.577-5.38c-0.552-0.602-1.144-1.246-2.018-2.198
	c-0.874-0.954-1.995-2.253-3.756-4.006c2.304,2.246-1.323,0.933-5.109-2.405c0.733,0.361,0.57-1.312,2.069-0.204l-5.217-3.621
	c-1.586-1.093-3.252-2.082-4.881-3.108c1.946,1.139,0.55-0.989-1.309-2.905c0.435,0.511-1.713-1.185-4.311-3.255
	c-2.646-2.007-5.843-4.259-7.247-5.196l4.187,3.364c-2.879-2.111-5.107-3.58-7.005-4.723c-0.953-0.565-1.806-1.075-2.648-1.496
	c-0.854-0.4-1.658-0.776-2.46-1.152c-1.61-0.739-3.215-1.47-5.155-2.493c-1.951-1.006-4.174-2.405-7.247-4.122
	c1.615,0.605,4.554,0.628-1.608-3.112c-0.801-0.258-2.091-0.674-3.761-1.212c-1.666-0.539-3.665-1.274-6.004-1.963
	c-0.244-0.077-0.502-0.161-0.751-0.241c-4.588-2.427-9.247-4.735-13.978-6.915c0.703,0.212,1.417,0.427,2.138,0.643
	c2.959,0.828,5.869,2.014,8.667,3.026c2.779,1.05,5.401,2.019,7.524,2.92c-4.588-2.758-1.098-1.104-8.247-4.738
	c-2.357-1.626,4.151,1.491,6.268,2.551l-8.274-4.373l-2.07-1.093l-2.119-0.993l-4.24-1.984c0.211,0.541-3.131-0.746-6.47-2.051
	c-3.396-1.174-6.812-2.314-6.602-1.875c6.436,2.077,12.623,4.794,18.926,7.285c0.199,0.534-2.723-0.156-7.163-1.662
	c-1.11-0.377-2.316-0.804-3.592-1.277c-1.278-0.469-2.613-1.016-4.048-1.478c-2.847-0.98-5.886-2.107-8.929-3.345
	c-3.002-1.53,2.84-0.433,2.689-0.783c-0.424-0.092-1.377-0.395-2.584-0.806c-0.602-0.21-1.269-0.443-1.967-0.686
	c-0.696-0.247-1.444-0.449-2.174-0.686c-2.933-0.915-5.785-1.865-6.328-2.153l5.451,1.386c-3.437-1.324-6.371-2.033-9.451-2.853
	c-1.529-0.448-3.154-0.734-4.875-1.231c-1.728-0.475-3.582-1.062-5.656-1.853c-0.73-0.221-1.626-0.549-2.569-0.914
	c-0.942-0.37-1.934-0.771-2.872-1.067c-1.867-0.631-3.447-1.127-3.759-0.953c2.777,1.209,3.952,2.755,3.743,3.796
	c-3.311-0.845-6.651-1.617-10.007-2.345l0.43-0.186l-1.941-0.438l0.006,0.296c-3.453-0.73-6.928-1.398-10.426-2.002
	c-0.272-0.734,8.175-0.04,4.724-1.193c-0.223,0.185-2.998-0.033-4.147-0.149c-3.114-0.748,1.421-0.444-5.442-1.567
	c-1.27,0.641-14.005-1.858-3.357,0.261c-3.382-0.311-5.163-0.58-7.091-0.893c-1.928-0.3-3.994-0.738-7.976-0.967
	c1.242,0.361-0.586,0.676-3.554,0.866c-0.798,0.051-1.682,0.093-2.608,0.124c-3.18-0.214-6.373-0.376-9.58-0.486
	c-0.032-0.006-0.07-0.014-0.1-0.02c-3.461-0.125-6.521-0.235-9.366-0.338c-2.846-0.022-5.478,0.026-8.083,0.029
	c-2.603,0.032-5.183-0.01-7.913,0.101c-2.727,0.17-5.611,0.364-8.835,0.608c-0.602-0.054-2.466-0.023-3.853-0.047
	c-1.389-0.041-2.292-0.043-0.988-0.381c-1.838,0.363-3.504,0.868-7.464,1.387c-7.768,0.27,8.831-1.234,2.877-1.339
	c-0.223,0.269-2.772,0.759-5.962,1.308c-0.798,0.135-1.635,0.277-2.487,0.421c-0.852,0.136-1.718,0.281-2.562,0.482
	c-1.69,0.378-3.334,0.745-4.724,1.055c0.462,0.105,1.503,0.022,2.889-0.182c1.387-0.2,3.116-0.56,4.987-0.807
	c3.731-0.569,7.94-1.33,10.752-1.837c0.044,0.33-0.979,0.799-2.812,1.355c-15.258,1.792-30.155,4.765-44.581,8.862
	c-0.365,0.097-0.735,0.197-1.12,0.301c-1.782,0.488-3.779,1.021-5.904,1.64c-2.099,0.703-4.339,1.453-6.653,2.228
	c-2.308,0.792-4.713,1.546-7.084,2.414c-2.356,0.914-4.718,1.83-7.023,2.724c-1.155,0.442-2.295,0.878-3.413,1.306
	c-1.122,0.419-2.219,0.834-3.257,1.305c-2.093,0.902-4.07,1.74-5.871,2.48c-1.698,0.934-4.274,2.27-4.938,2.756
	c-7.344,3.524-14.504,7.365-21.484,11.482l-1.78,0.968l-1.575,0.861l-1.533,0.932c0.619-0.341,1.226-0.701,1.855-1.025l2.067-1.164
	c-7.876,4.687-15.507,9.741-22.871,15.14c0.034-0.113-0.034-0.161-0.237-0.128c-1.57,1.162-3.055,2.435-4.539,3.707
	c-0.42,0.322-0.841,0.642-1.26,0.966c0.373-0.457,1.388-1.456-0.005-0.487c-0.029,0.191-0.492,0.717-1.244,1.445
	C217.036,178.001,211.246,182.933,205.654,188.079z M678.539,332.742c-0.522-1.971-0.964-4.238-1.473-6.751
	C677.692,327.491,678.105,329.959,678.539,332.742z M670.435,497.865c-0.508,1.471-1.045,2.856-1.497,3.535
	c0.143-1.272,0.464-2.323,0.942-3.48c0.469-1.161,0.996-2.467,1.691-4.187C671.278,494.782,670.877,496.369,670.435,497.865z
	 M646.171,548.467l1.476-2.822C647.333,546.281,646.899,547.149,646.171,548.467z M658.678,524.826l-0.046,0.605
	C658.195,526.262,658.309,525.83,658.678,524.826z M682.337,345.03c0.381,2.74,0.614,4.686,0.738,6.052L682.337,345.03z
	 M559.997,639.677c0.959-0.798,1.865-1.671,2.772-2.538c-0.114,0.241,0.389,0.047,0.328,0.213c-0.031,0.083-0.202,0.257-0.663,0.621
	C561.972,638.336,561.233,638.907,559.997,639.677z M159.151,559.199c0.141,0.268,0.343,0.613,0.508,0.902
	C159.279,559.544,159.039,559.153,159.151,559.199z M409.275,112.789c-0.099-0.003-0.168-0.005-0.255-0.008
	C408.551,112.688,408.401,112.665,409.275,112.789z M360.818,683.341c0.21,0.044,0.432,0.09,0.625,0.129
	C359.127,683.311,357.819,683.179,360.818,683.341z M610.532,202.528c-0.083-0.094-0.198-0.226-0.29-0.331
	c0.095,0.085,0.149,0.135,0.253,0.229L610.532,202.528z M611.833,206.119c-0.396-1.223-0.865-2.388-1.3-3.591
	c2.328,2.548,3.867,4.629,7.367,7.625L611.833,206.119z M171.878,576.713c-0.129-0.176-0.26-0.35-0.389-0.526
	C171.65,576.397,171.784,576.577,171.878,576.713z M429.721,686.236c-0.419,0.058-0.948,0.109-1.528,0.154
	C428.69,686.341,429.19,686.292,429.721,686.236z M652.014,537.809l0.661-1.174C652.505,536.961,652.284,537.355,652.014,537.809z
	 M681.865,345.615c0.082-0.162,0.159-0.349,0.148-0.972C682.226,346.435,682.111,346.437,681.865,345.615z M562.769,637.139
	c0.026-0.061,0.088-0.148,0.221-0.286l0.283-0.193L562.769,637.139z M452.875,115.611c-0.735-0.243-1.854-0.552-3.88-0.998
	C452.108,115.207,453.013,115.491,452.875,115.611z M324.544,121.856c-1.201,0.134-1.373,0.042-3.448,0.501l3.483-1.29
	L324.544,121.856z M340.389,117.255c-0.267,0.017,0.046-0.1,0.605-0.276c1.122-0.319,3.241-0.775,3.614-0.952
	c9.803-1.799-0.592,0.453-1.316,0.794c-0.893,0.131-1.553,0.228-2.023,0.297C340.801,117.204,340.522,117.246,340.389,117.255z
	 M548.142,151.102c6.966,4.799,1.485,0.108,9.221,5.395c1.74,2.077-0.664,0.329-5.571-2.452c1.013,0.5-0.392-0.478-1.802-1.465
	C548.598,151.564,547.106,150.694,548.142,151.102z M549.273,152.652c0.897,0.481,1.733,0.946,2.519,1.392
	C551.365,153.832,550.687,153.467,549.273,152.652z M676.407,482.667c0.804-2.713,1.205-4.067,1.656-4.911l0.056,0.495
	L676.407,482.667z M644.331,552.509l-1.244,0.658l2.018-1.835L644.331,552.509z M606.474,601.754
	c-0.459,0.496-0.921,0.999-1.384,1.505c-1.029,1.134-2.152,2.172-3.166,3.143C600.9,606.289,603.215,605.015,606.474,601.754z
	 M606.474,601.754c0.565-0.61,1.124-1.207,1.667-1.764C607.566,600.636,607.008,601.219,606.474,601.754z"/>
</svg>
