<?xml version="1.0" encoding="utf-8"?>
<!-- Generator: Adobe Illustrator 22.1.0, SVG Export Plug-In . SVG Version: 6.00 Build 0)  -->
<svg version="1.1" id="Layer_2_1_" xmlns="http://www.w3.org/2000/svg" xmlns:xlink="http://www.w3.org/1999/xlink" x="0px" y="0px"
	 width="121px" height="54px" viewBox="0 0 121 54" style="enable-background:new 0 0 121 54;" xml:space="preserve">
<style type="text/css">
	.st0{fill:#231F20;}
</style>
<path class="st0" d="M120.6,22.7c-6.8,0.2-13.7,0.5-20.6,0c0.6-0.3,1.2-0.6,1.7-1.1c1.7-1.4,2.5-3.5,2.2-5.3
	c-0.1-0.6-0.6-1.1-1.2-1.2c-2-0.5-4.1-0.7-6.2-0.7c1-0.9,1.9-2,2.4-3.3c0.4-0.9,0.5-2,0.3-2.9c-0.6-3.4-3.6-4-5.7-4.4l-0.2,0
	c-8.9-1.6-16.4-0.1-22.1,4.5c-0.8-0.8-1.8-1.3-2.8-1.5c-4.5-1-9.6,0.1-13.5,3c-2.1,1.6-3.2,3.9-3.1,6.3l-5.7-0.5
	c-1.7-0.5-3.5-0.5-5.1-0.4c-0.2,0-0.3,0.1-0.3,0.3s0.1,0.3,0.3,0.3l5,0.4c0.1,0,0.2,0,0.2,0.1c1.5,0.5,2.7,1.6,3.1,2.9
	c0.4,1.1,0.2,2.2-0.6,3.3c-0.7,1.1-1.8,1.9-3.2,2.4c-2.9,1.1-5.9,1.4-8.5,1.2c2-6.8,4.2-13.6,7.4-19.9c0.5-1,1.2-2.5,0.8-3.8
	C44.8,0.6,42.8,0,41.1,0c0,0,0,0-0.1,0c-4,0-8.2,2.3-11.2,6.3c-1.2,1.6-2.2,3.4-3.1,5.2c-0.1-0.7-0.5-1.3-1.1-1.7
	c-1.9-1.1-3.9,0.9-4.7,1.8c-1.7,2-3.3,4-4.8,6.2l2.4-4.8c0.4-0.9,0.6-2-0.2-2.5c-0.5-0.3-1-0.1-1.4,0c-5.7,1.6-11.3,3.7-16.6,6.1
	C0,16.6,0,16.8,0,17c0.1,0.2,0.3,0.2,0.4,0.2c5.3-2.4,10.9-4.5,16.5-6.1c0.3-0.1,0.7-0.2,0.9,0c0.6,0.3,0,1.5-0.1,1.6l-5.7,11.7
	c-0.1,0.2,0,0.4,0.1,0.4c0.2,0.1,0.4,0,0.4-0.1c2.4-4.5,5.3-8.8,8.6-12.6c0.5-0.6,2.4-2.6,3.9-1.7c0.8,0.5,1,1.6,0.7,2.7
	c-0.2,0.5-0.4,1.1-0.6,1.6c-0.1,0.1-0.1,0.3-0.2,0.4c-0.5,1-1.1,2-1.1,3.2c0,0.2,0.1,0.3,0.3,0.3c0.2,0,0.3-0.1,0.4-0.2
	c0.4-1.1,0.8-2.3,1.3-3.4c0.1-0.2,0.2-0.5,0.3-0.7c0.1-0.3,0.3-0.7,0.3-1c1-2.3,2.1-4.6,3.7-6.6c2.9-3.8,6.9-6,10.7-6c0,0,0,0,0.1,0
	c1.4,0,3.2,0.5,3.6,1.9c0.4,1.1-0.3,2.3-0.8,3.3c-3.2,6.4-5.5,13.3-7.5,20.2c-1.8-0.2-3.5-0.5-4.8-0.9c-1.4-0.4-3-1-4.2-2.1
	c-1-1-1.6-2.7-0.9-4.1c0.3-0.7,1.1-1.2,1.9-1.3c0.7-0.1,1.3,0.1,1.6,0.6c0.1,0.1,0.3,0.2,0.5,0c0.1-0.1,0.2-0.3,0-0.5
	c-0.5-0.6-1.3-0.9-2.2-0.8c-1,0.1-2,0.8-2.4,1.6c-0.9,1.7-0.1,3.7,1.1,4.9c1.3,1.3,3,1.9,4.5,2.3c1.4,0.4,4.8,0.9,4.8,0.9L31,42.2
	c0,0.2,0.1,0.4,0.2,0.4c0,0,0.1,0,0.1,0c0.1,0,0.3-0.1,0.3-0.2l5.3-15.6c0,0,1.1,0.1,1.6,0.1c2.3,0,4.8-0.4,7.3-1.3
	c1.5-0.6,2.7-1.5,3.5-2.7c0.8-1.3,1.1-2.7,0.6-3.9c-0.3-1-1.1-1.9-2.1-2.6l4,0.4c0,0.2,0.1,0.4,0.1,0.6c0.2,0.8,0.5,1.5,1,2.1
	c-0.6,0.7-1.1,1.3-1.7,2c-0.4,0.5-1.1,1.5-0.4,2.6c0.5,0.8,1.4,1.2,2.4,1.1c3.5-0.3,7.2-0.6,10.6-1.9c3.9,0.5,7.9,0.4,11.9-0.2
	c6.4,1.8,13.2,2.2,19.7,1c1-0.2,2.1-0.4,3.1-0.8c7.3,0.6,14.7,0.4,22,0.1c0.2,0,0.3-0.2,0.3-0.3C120.9,22.9,120.7,22.7,120.6,22.7z
	 M72.9,13.1c0,0.5-0.1,1-0.3,1.6c-0.6,1.8-1.9,3.5-3.5,4.9c-1.2-0.8-2-1.9-1.8-3.7c0.2-1.6,0.9-3.8,1.8-4.8c0.6-0.7,1.3-1.4,2-2
	C72.2,10.2,72.9,11.6,72.9,13.1z M52.7,17.1c0-0.1-0.1-0.2-0.1-0.4l2.7,0.2c-0.6,0.6-1.2,1.2-1.8,1.8C53.1,18.4,52.9,17.8,52.7,17.1
	z M53.3,24.4c-0.7,0.1-1.4-0.3-1.7-0.8c-0.4-0.6-0.1-1.1,0.4-1.8c0.5-0.7,1-1.3,1.6-1.9c1.1,1.1,2.7,1.7,4.4,2.2
	c1.5,0.4,3,0.7,4.6,1C59.4,23.9,56.3,24.2,53.3,24.4z M63.8,22.5c-2-0.2-3.9-0.6-5.8-1.1c-1.5-0.4-3-0.9-4.1-2
	c0.8-0.8,1.6-1.6,2.4-2.4c0.1-0.1,0.1-0.2,0.1-0.4s-0.2-0.2-0.3-0.2l-3.6-0.3c-0.2-2.2,0.9-4.4,2.8-5.8C59,7.5,64,6.4,68.3,7.4
	c0.8,0.2,1.7,0.6,2.4,1.3c-0.7,0.6-1.4,1.3-2,2c-1.1,1.2-1.8,3.4-2,5.2c-0.3,2,0.6,3.3,1.9,4.2c-1.1,0.8-2.3,1.6-3.7,2.2
	C64.5,22.3,64.2,22.4,63.8,22.5z M65.2,22.7c1.4-0.6,2.7-1.4,3.9-2.3c0.5,0.3,1.1,0.6,1.7,0.8c1.1,0.5,2.3,0.9,3.5,1.3
	C71.3,22.9,68.2,22.9,65.2,22.7z M71.1,20.6c-0.5-0.2-1-0.4-1.4-0.7c1.6-1.4,2.8-3.2,3.5-5c0.2-0.7,0.4-1.2,0.4-1.8
	c0-1.6-0.7-3.2-1.9-4.4c5.5-4.4,12.9-5.9,21.5-4.3l0.2,0c2.1,0.4,4.7,0.9,5.2,3.8c0.1,0.9,0.1,1.8-0.3,2.6c-0.6,1.5-1.6,2.6-2.9,3.6
	c-3,0.2-6,0.9-8.7,2.1c-1,0.4-1.6,1.3-1.7,2.2c0,0.4,0,0.7,0.1,1c-3.1,1.1-6.2,2-9.3,2.5C74.2,21.8,72.6,21.3,71.1,20.6z M94.4,15.2
	c-0.4,0.3-0.9,0.6-1.3,0.8c-2.4,1.4-4.8,2.6-7.3,3.6c-0.1-0.2-0.1-0.5-0.1-0.7c0.1-0.7,0.6-1.4,1.3-1.7
	C89.3,16.2,91.9,15.5,94.4,15.2z M95.4,23.4c-5.9,1.1-12.2,0.8-18-0.7c2.7-0.5,5.5-1.3,8.1-2.3c0.7,0.9,2,1.1,2.6,1.3
	c2.9,0.6,5.8,1.1,8.7,1.4C96.3,23.2,95.9,23.3,95.4,23.4z M98.5,22.6c-3.5-0.3-6.9-0.8-10.3-1.5c-1-0.2-1.6-0.5-2-0.9
	c2.5-1,4.9-2.2,7.3-3.6c0.7-0.4,1.5-0.9,2.2-1.5c2.3-0.1,4.6,0.1,6.8,0.6c0.3,0.1,0.6,0.4,0.7,0.7c0.3,1.6-0.5,3.5-2,4.7
	C100.4,21.8,99.5,22.2,98.5,22.6z"/>
</svg>
